<svg width="480" height="288" viewBox="0 0 480 288" fill="none" xmlns="http://www.w3.org/2000/svg">
<g clip-path="url(#clip0_5_9)">
<rect width="480" height="288" rx="20" fill="#B9E7FF"/>
<rect x="21" y="154" width="211" height="114" rx="20" fill="#7A7A7A"/>
<rect x="21" y="20" width="438" height="114" rx="20" fill="#7A7A7A"/>
<rect x="248" y="154" width="211" height="114" rx="20" fill="#7A7A7A"/>
<path d="M45.4084 191H42.0334L48.1783 173.545H52.0817L58.2351 191H54.8601L50.1982 177.125H50.0618L45.4084 191ZM45.5192 184.156H54.7237V186.696H45.5192V184.156ZM60.4915 191V177.909H63.5767V191H60.4915ZM62.0426 176.051C61.554 176.051 61.1335 175.889 60.7812 175.565C60.429 175.236 60.2528 174.841 60.2528 174.381C60.2528 173.915 60.429 173.52 60.7812 173.196C61.1335 172.866 61.554 172.702 62.0426 172.702C62.5369 172.702 62.9574 172.866 63.304 173.196C63.6563 173.52 63.8324 173.915 63.8324 174.381C63.8324 174.841 63.6563 175.236 63.304 175.565C62.9574 175.889 62.5369 176.051 62.0426 176.051ZM72.4595 191.256C71.1811 191.256 70.0732 190.974 69.1357 190.412C68.1982 189.849 67.4709 189.062 66.9538 188.051C66.4425 187.04 66.1868 185.858 66.1868 184.506C66.1868 183.153 66.4425 181.969 66.9538 180.952C67.4709 179.935 68.1982 179.145 69.1357 178.582C70.0732 178.02 71.1811 177.739 72.4595 177.739C73.7379 177.739 74.8459 178.02 75.7834 178.582C76.7209 179.145 77.4453 179.935 77.9567 180.952C78.4737 181.969 78.7322 183.153 78.7322 184.506C78.7322 185.858 78.4737 187.04 77.9567 188.051C77.4453 189.062 76.7209 189.849 75.7834 190.412C74.8459 190.974 73.7379 191.256 72.4595 191.256ZM72.4766 188.784C73.1697 188.784 73.7493 188.594 74.2152 188.213C74.6811 187.827 75.0277 187.31 75.255 186.662C75.4879 186.014 75.6044 185.293 75.6044 184.497C75.6044 183.696 75.4879 182.972 75.255 182.324C75.0277 181.67 74.6811 181.151 74.2152 180.764C73.7493 180.378 73.1697 180.185 72.4766 180.185C71.7663 180.185 71.1754 180.378 70.7038 180.764C70.2379 181.151 69.8885 181.67 69.6555 182.324C69.4283 182.972 69.3146 183.696 69.3146 184.497C69.3146 185.293 69.4283 186.014 69.6555 186.662C69.8885 187.31 70.2379 187.827 70.7038 188.213C71.1754 188.594 71.7663 188.784 72.4766 188.784ZM87.8878 177.909V180.295H80.3622V177.909H87.8878ZM82.2202 174.773H85.3054V187.062C85.3054 187.477 85.3679 187.795 85.4929 188.017C85.6236 188.233 85.794 188.381 86.0043 188.46C86.2145 188.54 86.4474 188.58 86.7031 188.58C86.8963 188.58 87.0724 188.565 87.2315 188.537C87.3963 188.509 87.5213 188.483 87.6065 188.46L88.1264 190.872C87.9616 190.929 87.7259 190.991 87.419 191.06C87.1179 191.128 86.7486 191.168 86.3111 191.179C85.5384 191.202 84.8423 191.085 84.223 190.83C83.6037 190.568 83.1122 190.165 82.7486 189.619C82.3906 189.074 82.2145 188.392 82.2202 187.574V174.773ZM90.468 191V177.909H93.4595V180.091H93.5959C93.8345 179.335 94.2436 178.753 94.8232 178.344C95.4084 177.929 96.076 177.722 96.826 177.722C96.9964 177.722 97.1868 177.73 97.397 177.747C97.6129 177.759 97.7919 177.778 97.9339 177.807V180.645C97.8033 180.599 97.5959 180.56 97.3118 180.526C97.0334 180.486 96.7635 180.466 96.5021 180.466C95.9396 180.466 95.4339 180.588 94.9851 180.832C94.5419 181.071 94.1925 181.403 93.9368 181.83C93.6811 182.256 93.5533 182.747 93.5533 183.304V191H90.468ZM103.516 191.264C102.687 191.264 101.94 191.116 101.275 190.821C100.616 190.52 100.093 190.077 99.7067 189.491C99.326 188.906 99.1357 188.185 99.1357 187.327C99.1357 186.588 99.272 185.977 99.5447 185.494C99.8175 185.011 100.19 184.625 100.661 184.335C101.133 184.045 101.664 183.827 102.255 183.679C102.852 183.526 103.468 183.415 104.104 183.347C104.871 183.267 105.494 183.196 105.971 183.134C106.448 183.065 106.795 182.963 107.011 182.827C107.232 182.685 107.343 182.466 107.343 182.17V182.119C107.343 181.477 107.153 180.98 106.772 180.628C106.391 180.276 105.843 180.099 105.127 180.099C104.371 180.099 103.772 180.264 103.329 180.594C102.891 180.923 102.596 181.312 102.442 181.761L99.5618 181.352C99.7891 180.557 100.164 179.892 100.687 179.358C101.21 178.818 101.849 178.415 102.604 178.148C103.36 177.875 104.195 177.739 105.11 177.739C105.741 177.739 106.369 177.812 106.994 177.96C107.619 178.108 108.19 178.352 108.707 178.693C109.224 179.028 109.638 179.486 109.951 180.065C110.269 180.645 110.428 181.369 110.428 182.239V191H107.462V189.202H107.36C107.173 189.565 106.908 189.906 106.567 190.224C106.232 190.537 105.809 190.79 105.298 190.983C104.792 191.17 104.198 191.264 103.516 191.264ZM104.317 188.997C104.937 188.997 105.474 188.875 105.928 188.631C106.383 188.381 106.732 188.051 106.977 187.642C107.227 187.233 107.352 186.787 107.352 186.304V184.761C107.255 184.841 107.09 184.915 106.857 184.983C106.63 185.051 106.374 185.111 106.09 185.162C105.806 185.213 105.525 185.259 105.246 185.298C104.968 185.338 104.727 185.372 104.522 185.401C104.062 185.463 103.65 185.565 103.286 185.707C102.923 185.849 102.636 186.048 102.425 186.304C102.215 186.554 102.11 186.878 102.11 187.276C102.11 187.844 102.317 188.273 102.732 188.562C103.147 188.852 103.675 188.997 104.317 188.997ZM120.17 185.136H123.033L124.729 187.335L125.94 188.767L128.846 192.5H125.778L123.8 189.994L122.957 188.801L120.17 185.136ZM129.263 182.273C129.263 184.153 128.911 185.764 128.207 187.105C127.508 188.44 126.553 189.463 125.343 190.173C124.138 190.884 122.772 191.239 121.244 191.239C119.715 191.239 118.346 190.884 117.136 190.173C115.931 189.457 114.977 188.432 114.272 187.097C113.573 185.756 113.224 184.148 113.224 182.273C113.224 180.392 113.573 178.784 114.272 177.449C114.977 176.108 115.931 175.082 117.136 174.372C118.346 173.662 119.715 173.307 121.244 173.307C122.772 173.307 124.138 173.662 125.343 174.372C126.553 175.082 127.508 176.108 128.207 177.449C128.911 178.784 129.263 180.392 129.263 182.273ZM126.085 182.273C126.085 180.949 125.877 179.832 125.462 178.923C125.053 178.009 124.485 177.318 123.758 176.852C123.031 176.381 122.192 176.145 121.244 176.145C120.295 176.145 119.457 176.381 118.729 176.852C118.002 177.318 117.431 178.009 117.016 178.923C116.607 179.832 116.403 180.949 116.403 182.273C116.403 183.597 116.607 184.716 117.016 185.631C117.431 186.54 118.002 187.23 118.729 187.702C119.457 188.168 120.295 188.401 121.244 188.401C122.192 188.401 123.031 188.168 123.758 187.702C124.485 187.23 125.053 186.54 125.462 185.631C125.877 184.716 126.085 183.597 126.085 182.273Z" fill="white"/>
<path d="M45.1545 55H41.7795L47.9244 37.5455H51.8278L57.9812 55H54.6062L49.9442 41.125H49.8079L45.1545 55ZM45.2653 48.1562H54.4698V50.696H45.2653V48.1562ZM60.2376 55V41.9091H63.3228V55H60.2376ZM61.7887 40.0511C61.3001 40.0511 60.8796 39.8892 60.5273 39.5653C60.1751 39.2358 59.9989 38.8409 59.9989 38.3807C59.9989 37.9148 60.1751 37.5199 60.5273 37.196C60.8796 36.8665 61.3001 36.7017 61.7887 36.7017C62.283 36.7017 62.7035 36.8665 63.0501 37.196C63.4023 37.5199 63.5785 37.9148 63.5785 38.3807C63.5785 38.8409 63.4023 39.2358 63.0501 39.5653C62.7035 39.8892 62.283 40.0511 61.7887 40.0511ZM72.2056 55.2557C70.9272 55.2557 69.8192 54.9744 68.8817 54.4119C67.9442 53.8494 67.217 53.0625 66.6999 52.0511C66.1886 51.0398 65.9329 49.858 65.9329 48.5057C65.9329 47.1534 66.1886 45.9687 66.6999 44.9517C67.217 43.9347 67.9442 43.1449 68.8817 42.5824C69.8192 42.0199 70.9272 41.7386 72.2056 41.7386C73.484 41.7386 74.592 42.0199 75.5295 42.5824C76.467 43.1449 77.1914 43.9347 77.7028 44.9517C78.2198 45.9687 78.4783 47.1534 78.4783 48.5057C78.4783 49.858 78.2198 51.0398 77.7028 52.0511C77.1914 53.0625 76.467 53.8494 75.5295 54.4119C74.592 54.9744 73.484 55.2557 72.2056 55.2557ZM72.2227 52.7841C72.9158 52.7841 73.4954 52.5937 73.9613 52.2131C74.4272 51.8267 74.7738 51.3097 75.0011 50.6619C75.234 50.0142 75.3505 49.2926 75.3505 48.4972C75.3505 47.696 75.234 46.9716 75.0011 46.3239C74.7738 45.6705 74.4272 45.1506 73.9613 44.7642C73.4954 44.3778 72.9158 44.1847 72.2227 44.1847C71.5124 44.1847 70.9215 44.3778 70.4499 44.7642C69.984 45.1506 69.6346 45.6705 69.4016 46.3239C69.1744 46.9716 69.0607 47.696 69.0607 48.4972C69.0607 49.2926 69.1744 50.0142 69.4016 50.6619C69.6346 51.3097 69.984 51.8267 70.4499 52.2131C70.9215 52.5937 71.5124 52.7841 72.2227 52.7841ZM87.6339 41.9091V44.2955H80.1083V41.9091H87.6339ZM81.9663 38.7727H85.0515V51.0625C85.0515 51.4773 85.114 51.7955 85.239 52.017C85.3697 52.233 85.5401 52.3807 85.7504 52.4602C85.9606 52.5398 86.1935 52.5795 86.4492 52.5795C86.6424 52.5795 86.8185 52.5653 86.9776 52.5369C87.1424 52.5085 87.2674 52.483 87.3526 52.4602L87.8725 54.8722C87.7077 54.929 87.4719 54.9915 87.1651 55.0597C86.864 55.1278 86.4947 55.1676 86.0572 55.179C85.2844 55.2017 84.5884 55.0852 83.9691 54.8295C83.3498 54.5682 82.8583 54.1648 82.4947 53.6193C82.1367 53.0739 81.9606 52.392 81.9663 51.5739V38.7727ZM90.2141 55V41.9091H93.2056V44.0909H93.342C93.5806 43.3352 93.9897 42.7528 94.5692 42.3438C95.1545 41.929 95.8221 41.7216 96.5721 41.7216C96.7425 41.7216 96.9329 41.7301 97.1431 41.7472C97.359 41.7585 97.538 41.7784 97.68 41.8068V44.6449C97.5494 44.5994 97.342 44.5597 97.0579 44.5256C96.7795 44.4858 96.5096 44.4659 96.2482 44.4659C95.6857 44.4659 95.18 44.5881 94.7312 44.8324C94.288 45.071 93.9386 45.4034 93.6829 45.8295C93.4272 46.2557 93.2994 46.7472 93.2994 47.304V55H90.2141ZM103.262 55.2642C102.433 55.2642 101.686 55.1165 101.021 54.821C100.362 54.5199 99.8391 54.0767 99.4528 53.4915C99.0721 52.9062 98.8817 52.1847 98.8817 51.3267C98.8817 50.5881 99.0181 49.9773 99.2908 49.4943C99.5636 49.0114 99.9357 48.625 100.407 48.3352C100.879 48.0455 101.41 47.8267 102.001 47.679C102.598 47.5256 103.214 47.4148 103.85 47.3466C104.618 47.267 105.24 47.196 105.717 47.1335C106.194 47.0653 106.541 46.9631 106.757 46.8267C106.978 46.6847 107.089 46.4659 107.089 46.1705V46.1193C107.089 45.4773 106.899 44.9801 106.518 44.6278C106.137 44.2756 105.589 44.0994 104.873 44.0994C104.118 44.0994 103.518 44.2642 103.075 44.5938C102.637 44.9233 102.342 45.3125 102.189 45.7614L99.3079 45.3523C99.5352 44.5568 99.9102 43.892 100.433 43.358C100.956 42.8182 101.595 42.4148 102.35 42.1477C103.106 41.875 103.941 41.7386 104.856 41.7386C105.487 41.7386 106.115 41.8125 106.74 41.9602C107.365 42.108 107.936 42.3523 108.453 42.6932C108.97 43.0284 109.385 43.4858 109.697 44.0653C110.015 44.6449 110.174 45.3693 110.174 46.2386V55H107.208V53.2017H107.106C106.919 53.5653 106.654 53.9062 106.314 54.2244C105.978 54.5369 105.555 54.7898 105.044 54.983C104.538 55.1705 103.944 55.2642 103.262 55.2642ZM104.064 52.9972C104.683 52.9972 105.22 52.875 105.674 52.6307C106.129 52.3807 106.478 52.0511 106.723 51.642C106.973 51.233 107.098 50.7869 107.098 50.304V48.7614C107.001 48.8409 106.836 48.9148 106.603 48.983C106.376 49.0511 106.12 49.1108 105.836 49.1619C105.552 49.2131 105.271 49.2585 104.993 49.2983C104.714 49.3381 104.473 49.3722 104.268 49.4006C103.808 49.4631 103.396 49.5653 103.032 49.7074C102.669 49.8494 102.382 50.0483 102.172 50.304C101.961 50.554 101.856 50.8778 101.856 51.2756C101.856 51.8438 102.064 52.2727 102.478 52.5625C102.893 52.8523 103.422 52.9972 104.064 52.9972ZM119.916 49.1364H122.779L124.475 51.3352L125.686 52.767L128.592 56.5H125.524L123.547 53.9943L122.703 52.8011L119.916 49.1364ZM129.01 46.2727C129.01 48.1534 128.657 49.7642 127.953 51.1051C127.254 52.4403 126.299 53.4631 125.089 54.1733C123.885 54.8835 122.518 55.2386 120.99 55.2386C119.461 55.2386 118.092 54.8835 116.882 54.1733C115.677 53.4574 114.723 52.4318 114.018 51.0966C113.319 49.7557 112.97 48.1477 112.97 46.2727C112.97 44.392 113.319 42.7841 114.018 41.4489C114.723 40.108 115.677 39.0824 116.882 38.3722C118.092 37.6619 119.461 37.3068 120.99 37.3068C122.518 37.3068 123.885 37.6619 125.089 38.3722C126.299 39.0824 127.254 40.108 127.953 41.4489C128.657 42.7841 129.01 44.392 129.01 46.2727ZM125.831 46.2727C125.831 44.9489 125.623 43.8324 125.208 42.9233C124.799 42.0085 124.231 41.3182 123.504 40.8523C122.777 40.3807 121.939 40.1449 120.99 40.1449C120.041 40.1449 119.203 40.3807 118.475 40.8523C117.748 41.3182 117.177 42.0085 116.762 42.9233C116.353 43.8324 116.149 44.9489 116.149 46.2727C116.149 47.5966 116.353 48.7159 116.762 49.6307C117.177 50.5398 117.748 51.2301 118.475 51.7017C119.203 52.1676 120.041 52.4006 120.99 52.4006C121.939 52.4006 122.777 52.1676 123.504 51.7017C124.231 51.2301 124.799 50.5398 125.208 49.6307C125.623 48.7159 125.831 47.5966 125.831 46.2727ZM139.821 45.0028V47.5426H131.963V45.0028H139.821ZM143.202 37.5455H147.071L152.253 50.1932H152.458L157.64 37.5455H161.509V55H158.475V43.0085H158.313L153.489 54.9489H151.222L146.398 42.983H146.236V55H143.202V37.5455ZM170.611 55.2557C169.299 55.2557 168.165 54.983 167.211 54.4375C166.262 53.8864 165.532 53.108 165.02 52.1023C164.509 51.0909 164.253 49.9006 164.253 48.5312C164.253 47.1847 164.509 46.0028 165.02 44.9858C165.537 43.9631 166.259 43.1676 167.185 42.5994C168.111 42.0256 169.199 41.7386 170.449 41.7386C171.256 41.7386 172.017 41.8693 172.733 42.1307C173.455 42.3864 174.091 42.7841 174.642 43.3239C175.199 43.8636 175.637 44.5511 175.955 45.3864C176.273 46.2159 176.432 47.2045 176.432 48.3523V49.2983H165.702V47.2188H173.475C173.469 46.6278 173.341 46.1023 173.091 45.642C172.841 45.1761 172.492 44.8097 172.043 44.5426C171.6 44.2756 171.083 44.142 170.492 44.142C169.861 44.142 169.307 44.2955 168.83 44.6023C168.353 44.9034 167.98 45.3011 167.713 45.7955C167.452 46.2841 167.319 46.821 167.313 47.4062V49.2216C167.313 49.983 167.452 50.6364 167.73 51.1818C168.009 51.7216 168.398 52.1364 168.898 52.4261C169.398 52.7102 169.983 52.8523 170.654 52.8523C171.103 52.8523 171.509 52.7898 171.873 52.6648C172.236 52.5341 172.551 52.3438 172.819 52.0938C173.086 51.8438 173.287 51.5341 173.424 51.1648L176.304 51.4886C176.123 52.25 175.776 52.9148 175.265 53.483C174.759 54.0455 174.111 54.483 173.321 54.7955C172.532 55.1023 171.628 55.2557 170.611 55.2557ZM189.389 45.3693L186.576 45.6761C186.497 45.392 186.358 45.125 186.159 44.875C185.966 44.625 185.704 44.4233 185.375 44.2699C185.045 44.1165 184.642 44.0398 184.164 44.0398C183.522 44.0398 182.983 44.179 182.545 44.4574C182.113 44.7358 181.9 45.0966 181.906 45.5398C181.9 45.9205 182.039 46.2301 182.324 46.4688C182.613 46.7074 183.091 46.9034 183.755 47.0568L185.988 47.5341C187.227 47.8011 188.147 48.2244 188.75 48.804C189.358 49.3835 189.664 50.142 189.67 51.0795C189.664 51.9034 189.423 52.6307 188.946 53.2614C188.474 53.8864 187.818 54.375 186.977 54.7273C186.136 55.0795 185.17 55.2557 184.079 55.2557C182.477 55.2557 181.187 54.9205 180.21 54.25C179.233 53.5739 178.65 52.6335 178.463 51.429L181.471 51.1392C181.608 51.7301 181.897 52.1761 182.341 52.4773C182.784 52.7784 183.36 52.929 184.071 52.929C184.804 52.929 185.392 52.7784 185.835 52.4773C186.284 52.1761 186.508 51.804 186.508 51.3608C186.508 50.9858 186.363 50.6761 186.074 50.4318C185.789 50.1875 185.346 50 184.744 49.8693L182.511 49.4006C181.255 49.1392 180.326 48.6989 179.724 48.0795C179.122 47.4545 178.824 46.6648 178.829 45.7102C178.824 44.9034 179.042 44.2045 179.485 43.6136C179.934 43.017 180.556 42.5568 181.352 42.233C182.153 41.9034 183.076 41.7386 184.122 41.7386C185.656 41.7386 186.863 42.0653 187.744 42.7188C188.63 43.3722 189.179 44.2557 189.389 45.3693ZM202.561 45.3693L199.748 45.6761C199.669 45.392 199.529 45.125 199.331 44.875C199.137 44.625 198.876 44.4233 198.547 44.2699C198.217 44.1165 197.814 44.0398 197.336 44.0398C196.694 44.0398 196.154 44.179 195.717 44.4574C195.285 44.7358 195.072 45.0966 195.078 45.5398C195.072 45.9205 195.211 46.2301 195.495 46.4688C195.785 46.7074 196.262 46.9034 196.927 47.0568L199.16 47.5341C200.399 47.8011 201.319 48.2244 201.922 48.804C202.529 49.3835 202.836 50.142 202.842 51.0795C202.836 51.9034 202.595 52.6307 202.118 53.2614C201.646 53.8864 200.99 54.375 200.149 54.7273C199.308 55.0795 198.342 55.2557 197.251 55.2557C195.649 55.2557 194.359 54.9205 193.382 54.25C192.404 53.5739 191.822 52.6335 191.635 51.429L194.643 51.1392C194.779 51.7301 195.069 52.1761 195.512 52.4773C195.956 52.7784 196.532 52.929 197.243 52.929C197.975 52.929 198.564 52.7784 199.007 52.4773C199.456 52.1761 199.68 51.804 199.68 51.3608C199.68 50.9858 199.535 50.6761 199.245 50.4318C198.961 50.1875 198.518 50 197.916 49.8693L195.683 49.4006C194.427 49.1392 193.498 48.6989 192.896 48.0795C192.294 47.4545 191.995 46.6648 192.001 45.7102C191.995 44.9034 192.214 44.2045 192.657 43.6136C193.106 43.017 193.728 42.5568 194.524 42.233C195.325 41.9034 196.248 41.7386 197.294 41.7386C198.828 41.7386 200.035 42.0653 200.916 42.7188C201.802 43.3722 202.35 44.2557 202.561 45.3693ZM209.153 55.2642C208.324 55.2642 207.576 55.1165 206.912 54.821C206.252 54.5199 205.73 54.0767 205.343 53.4915C204.963 52.9062 204.772 52.1847 204.772 51.3267C204.772 50.5881 204.909 49.9773 205.181 49.4943C205.454 49.0114 205.826 48.625 206.298 48.3352C206.77 48.0455 207.301 47.8267 207.892 47.679C208.488 47.5256 209.105 47.4148 209.741 47.3466C210.508 47.267 211.13 47.196 211.608 47.1335C212.085 47.0653 212.431 46.9631 212.647 46.8267C212.869 46.6847 212.98 46.4659 212.98 46.1705V46.1193C212.98 45.4773 212.789 44.9801 212.409 44.6278C212.028 44.2756 211.48 44.0994 210.764 44.0994C210.008 44.0994 209.409 44.2642 208.966 44.5938C208.528 44.9233 208.233 45.3125 208.079 45.7614L205.199 45.3523C205.426 44.5568 205.801 43.892 206.324 43.358C206.846 42.8182 207.485 42.4148 208.241 42.1477C208.997 41.875 209.832 41.7386 210.747 41.7386C211.377 41.7386 212.005 41.8125 212.63 41.9602C213.255 42.108 213.826 42.3523 214.343 42.6932C214.86 43.0284 215.275 43.4858 215.588 44.0653C215.906 44.6449 216.065 45.3693 216.065 46.2386V55H213.099V53.2017H212.997C212.809 53.5653 212.545 53.9062 212.204 54.2244C211.869 54.5369 211.446 54.7898 210.934 54.983C210.429 55.1705 209.835 55.2642 209.153 55.2642ZM209.954 52.9972C210.574 52.9972 211.11 52.875 211.565 52.6307C212.02 52.3807 212.369 52.0511 212.613 51.642C212.863 51.233 212.988 50.7869 212.988 50.304V48.7614C212.892 48.8409 212.727 48.9148 212.494 48.983C212.267 49.0511 212.011 49.1108 211.727 49.1619C211.443 49.2131 211.162 49.2585 210.883 49.2983C210.605 49.3381 210.363 49.3722 210.159 49.4006C209.699 49.4631 209.287 49.5653 208.923 49.7074C208.559 49.8494 208.272 50.0483 208.062 50.304C207.852 50.554 207.747 50.8778 207.747 51.2756C207.747 51.8438 207.954 52.2727 208.369 52.5625C208.784 52.8523 209.312 52.9972 209.954 52.9972ZM224.86 60.1818C223.752 60.1818 222.801 60.0313 222.005 59.7301C221.21 59.4347 220.571 59.0369 220.088 58.5369C219.605 58.0369 219.27 57.483 219.082 56.875L221.86 56.2017C221.985 56.4574 222.167 56.7102 222.406 56.9602C222.645 57.2159 222.966 57.4261 223.369 57.5909C223.778 57.7614 224.292 57.8466 224.912 57.8466C225.787 57.8466 226.511 57.6335 227.085 57.2074C227.659 56.7869 227.946 56.0938 227.946 55.1278V52.6477H227.792C227.633 52.9659 227.4 53.2926 227.093 53.6278C226.792 53.9631 226.392 54.2443 225.892 54.4716C225.397 54.6989 224.775 54.8125 224.025 54.8125C223.02 54.8125 222.108 54.5767 221.289 54.1051C220.477 53.6278 219.829 52.9176 219.346 51.9744C218.869 51.0256 218.63 49.8381 218.63 48.4119C218.63 46.9744 218.869 45.7614 219.346 44.7727C219.829 43.7784 220.48 43.0256 221.298 42.5142C222.116 41.9972 223.028 41.7386 224.034 41.7386C224.801 41.7386 225.431 41.8693 225.926 42.1307C226.426 42.3864 226.824 42.696 227.119 43.0597C227.414 43.4176 227.639 43.7557 227.792 44.0739H227.963V41.9091H231.005V55.2131C231.005 56.3324 230.738 57.2585 230.204 57.9915C229.67 58.7244 228.94 59.2727 228.014 59.6364C227.088 60 226.037 60.1818 224.86 60.1818ZM224.886 52.392C225.539 52.392 226.096 52.233 226.556 51.9148C227.017 51.5966 227.366 51.1392 227.605 50.5426C227.843 49.946 227.963 49.2301 227.963 48.3949C227.963 47.571 227.843 46.8494 227.605 46.2301C227.372 45.6108 227.025 45.1307 226.565 44.7898C226.11 44.4432 225.551 44.2699 224.886 44.2699C224.199 44.2699 223.625 44.4489 223.164 44.8068C222.704 45.1648 222.358 45.6562 222.125 46.2812C221.892 46.9006 221.775 47.6051 221.775 48.3949C221.775 49.196 221.892 49.8977 222.125 50.5C222.363 51.0966 222.713 51.5625 223.173 51.8977C223.639 52.2273 224.21 52.392 224.886 52.392ZM239.963 55.2557C238.65 55.2557 237.517 54.983 236.562 54.4375C235.613 53.8864 234.883 53.108 234.372 52.1023C233.86 51.0909 233.605 49.9006 233.605 48.5312C233.605 47.1847 233.86 46.0028 234.372 44.9858C234.889 43.9631 235.61 43.1676 236.537 42.5994C237.463 42.0256 238.551 41.7386 239.801 41.7386C240.608 41.7386 241.369 41.8693 242.085 42.1307C242.806 42.3864 243.443 42.7841 243.994 43.3239C244.551 43.8636 244.988 44.5511 245.306 45.3864C245.625 46.2159 245.784 47.2045 245.784 48.3523V49.2983H235.054V47.2188H242.826C242.821 46.6278 242.693 46.1023 242.443 45.642C242.193 45.1761 241.843 44.8097 241.395 44.5426C240.951 44.2756 240.434 44.142 239.843 44.142C239.213 44.142 238.659 44.2955 238.181 44.6023C237.704 44.9034 237.332 45.3011 237.065 45.7955C236.804 46.2841 236.67 46.821 236.664 47.4062V49.2216C236.664 49.983 236.804 50.6364 237.082 51.1818C237.36 51.7216 237.75 52.1364 238.25 52.4261C238.75 52.7102 239.335 52.8523 240.005 52.8523C240.454 52.8523 240.86 52.7898 241.224 52.6648C241.588 52.5341 241.903 52.3438 242.17 52.0938C242.437 51.8438 242.639 51.5341 242.775 51.1648L245.656 51.4886C245.474 52.25 245.127 52.9148 244.616 53.483C244.11 54.0455 243.463 54.483 242.673 54.7955C241.883 55.1023 240.98 55.2557 239.963 55.2557Z" fill="white"/>
<path d="M42.5625 231H41.4489L45.6818 219.364H46.8182L51.0511 231H49.9375L46.2898 220.744H46.2102L42.5625 231ZM43.3636 226.54H49.1364V227.494H43.3636V226.54ZM53.0455 231V219.364H56.8011C57.6269 219.364 58.3163 219.523 58.8693 219.841C59.4261 220.155 59.8447 220.583 60.125 221.125C60.4091 221.667 60.5511 222.277 60.5511 222.955C60.5511 223.633 60.411 224.244 60.1307 224.79C59.8504 225.331 59.4337 225.761 58.8807 226.08C58.3277 226.394 57.6402 226.551 56.8182 226.551H53.8636V225.597H56.7898C57.3996 225.597 57.9053 225.483 58.3068 225.256C58.7083 225.025 59.0076 224.71 59.2045 224.312C59.4053 223.915 59.5057 223.462 59.5057 222.955C59.5057 222.447 59.4053 221.994 59.2045 221.597C59.0076 221.199 58.7064 220.886 58.3011 220.659C57.8996 220.432 57.3902 220.318 56.7727 220.318H54.108V231H53.0455ZM64.108 219.364V231H63.0455V219.364H64.108ZM80.8153 223H79.7472C79.6676 222.602 79.5237 222.235 79.3153 221.898C79.1108 221.557 78.8532 221.259 78.5426 221.006C78.232 220.752 77.8797 220.555 77.4858 220.415C77.0919 220.275 76.6657 220.205 76.2074 220.205C75.4725 220.205 74.8021 220.396 74.196 220.778C73.5938 221.161 73.1108 221.723 72.7472 222.466C72.3873 223.205 72.2074 224.11 72.2074 225.182C72.2074 226.261 72.3873 227.17 72.7472 227.909C73.1108 228.648 73.5938 229.208 74.196 229.591C74.8021 229.97 75.4725 230.159 76.2074 230.159C76.6657 230.159 77.0919 230.089 77.4858 229.949C77.8797 229.809 78.232 229.614 78.5426 229.364C78.8532 229.11 79.1108 228.812 79.3153 228.472C79.5237 228.131 79.6676 227.761 79.7472 227.364H80.8153C80.7206 227.898 80.5426 228.396 80.2812 228.858C80.0237 229.316 79.6941 229.718 79.2926 230.062C78.8949 230.407 78.4366 230.676 77.9176 230.869C77.3987 231.062 76.8286 231.159 76.2074 231.159C75.2301 231.159 74.3627 230.915 73.6051 230.426C72.8475 229.934 72.2528 229.241 71.821 228.347C71.393 227.453 71.179 226.398 71.179 225.182C71.179 223.966 71.393 222.911 71.821 222.017C72.2528 221.123 72.8475 220.432 73.6051 219.943C74.3627 219.451 75.2301 219.205 76.2074 219.205C76.8286 219.205 77.3987 219.301 77.9176 219.494C78.4366 219.684 78.8949 219.953 79.2926 220.301C79.6941 220.646 80.0237 221.047 80.2812 221.506C80.5426 221.964 80.7206 222.462 80.8153 223ZM84.1122 219.364V231H83.1009V219.364H84.1122ZM86.7997 231V222.273H87.8168V231H86.7997ZM87.3168 220.773C87.1084 220.773 86.9304 220.703 86.7827 220.562C86.6349 220.419 86.5611 220.246 86.5611 220.045C86.5611 219.845 86.6349 219.674 86.7827 219.534C86.9304 219.39 87.1084 219.318 87.3168 219.318C87.5251 219.318 87.7031 219.39 87.8509 219.534C87.9986 219.674 88.0724 219.845 88.0724 220.045C88.0724 220.246 87.9986 220.419 87.8509 220.562C87.7031 220.703 87.5251 220.773 87.3168 220.773ZM94.0199 231.182C93.2055 231.182 92.5009 230.992 91.9062 230.614C91.3116 230.231 90.8513 229.703 90.5256 229.028C90.2036 228.35 90.0426 227.57 90.0426 226.688C90.0426 225.809 90.2036 225.028 90.5256 224.347C90.8513 223.661 91.3002 223.125 91.8722 222.739C92.4479 222.348 93.1127 222.153 93.8665 222.153C94.34 222.153 94.7964 222.241 95.2358 222.415C95.6752 222.585 96.0691 222.848 96.4176 223.205C96.7699 223.557 97.0483 224.002 97.2528 224.54C97.4574 225.074 97.5597 225.706 97.5597 226.438V226.938H90.7415V226.045H96.5256C96.5256 225.485 96.4119 224.981 96.1847 224.534C95.9612 224.083 95.6487 223.727 95.2472 223.466C94.8494 223.205 94.3892 223.074 93.8665 223.074C93.3134 223.074 92.8267 223.222 92.4062 223.517C91.9858 223.812 91.6563 224.203 91.4176 224.688C91.1828 225.172 91.0634 225.703 91.0597 226.278V226.812C91.0597 227.506 91.179 228.112 91.4176 228.631C91.66 229.146 92.0028 229.545 92.446 229.83C92.8892 230.114 93.4138 230.256 94.0199 230.256C94.4328 230.256 94.7945 230.191 95.1051 230.062C95.4195 229.934 95.6828 229.761 95.8949 229.545C96.1108 229.326 96.2737 229.085 96.3835 228.824L97.3438 229.136C97.2112 229.504 96.9934 229.843 96.6903 230.153C96.3911 230.464 96.0161 230.714 95.5653 230.903C95.1184 231.089 94.6032 231.182 94.0199 231.182ZM100.8 225.545V231H99.7884V222.273H100.771V223.642H100.862C101.067 223.195 101.385 222.837 101.817 222.568C102.252 222.295 102.79 222.159 103.43 222.159C104.018 222.159 104.533 222.282 104.976 222.528C105.423 222.771 105.769 223.129 106.016 223.602C106.266 224.076 106.391 224.657 106.391 225.347V231H105.379V225.409C105.379 224.693 105.179 224.127 104.777 223.71C104.379 223.294 103.845 223.085 103.175 223.085C102.716 223.085 102.309 223.184 101.953 223.381C101.597 223.578 101.315 223.862 101.107 224.233C100.902 224.6 100.8 225.038 100.8 225.545ZM112.491 222.273V223.153H108.327V222.273H112.491ZM109.628 220.182H110.645V228.722C110.645 229.085 110.707 229.371 110.832 229.58C110.957 229.784 111.12 229.93 111.321 230.017C111.522 230.1 111.736 230.142 111.963 230.142C112.096 230.142 112.209 230.134 112.304 230.119C112.399 230.1 112.482 230.081 112.554 230.062L112.77 230.977C112.671 231.015 112.55 231.049 112.406 231.08C112.262 231.114 112.084 231.131 111.872 231.131C111.501 231.131 111.143 231.049 110.798 230.886C110.457 230.723 110.177 230.481 109.957 230.159C109.738 229.837 109.628 229.438 109.628 228.96V220.182ZM42.5625 250H41.4489L45.6818 238.364H46.8182L51.0511 250H49.9375L46.2898 239.744H46.2102L42.5625 250ZM43.3636 245.54H49.1364V246.494H43.3636V245.54ZM53.0455 250V238.364H56.8011C57.6269 238.364 58.3163 238.523 58.8693 238.841C59.4261 239.155 59.8447 239.583 60.125 240.125C60.4091 240.667 60.5511 241.277 60.5511 241.955C60.5511 242.633 60.411 243.244 60.1307 243.79C59.8504 244.331 59.4337 244.761 58.8807 245.08C58.3277 245.394 57.6402 245.551 56.8182 245.551H53.8636V244.597H56.7898C57.3996 244.597 57.9053 244.483 58.3068 244.256C58.7083 244.025 59.0076 243.71 59.2045 243.312C59.4053 242.915 59.5057 242.462 59.5057 241.955C59.5057 241.447 59.4053 240.994 59.2045 240.597C59.0076 240.199 58.7064 239.886 58.3011 239.659C57.8996 239.432 57.3902 239.318 56.7727 239.318H54.108V250H53.0455ZM64.108 238.364V250H63.0455V238.364H64.108ZM71.7017 238.364H72.929L77.1506 248.5H77.2528L81.4744 238.364H82.7017V250H81.7017V240.608H81.6108L77.6847 250H76.7188L72.7926 240.608H72.7017V250H71.7017V238.364ZM88.9773 250.182C88.2235 250.182 87.5568 249.991 86.9773 249.608C86.4015 249.225 85.9508 248.697 85.625 248.023C85.2992 247.345 85.1364 246.562 85.1364 245.676C85.1364 244.782 85.2992 243.996 85.625 243.318C85.9508 242.636 86.4015 242.106 86.9773 241.727C87.5568 241.345 88.2235 241.153 88.9773 241.153C89.7311 241.153 90.3958 241.345 90.9716 241.727C91.5473 242.11 91.9981 242.64 92.3239 243.318C92.6534 243.996 92.8182 244.782 92.8182 245.676C92.8182 246.562 92.6553 247.345 92.3295 248.023C92.0038 248.697 91.5511 249.225 90.9716 249.608C90.3958 249.991 89.7311 250.182 88.9773 250.182ZM88.9773 249.256C89.5833 249.256 90.0966 249.093 90.517 248.767C90.9375 248.441 91.2557 248.008 91.4716 247.466C91.6913 246.924 91.8011 246.328 91.8011 245.676C91.8011 245.025 91.6913 244.426 91.4716 243.881C91.2557 243.335 90.9375 242.898 90.517 242.568C90.0966 242.239 89.5833 242.074 88.9773 242.074C88.375 242.074 87.8617 242.239 87.4375 242.568C87.017 242.898 86.697 243.335 86.4773 243.881C86.2614 244.426 86.1534 245.025 86.1534 245.676C86.1534 246.328 86.2614 246.924 86.4773 247.466C86.697 248.008 87.017 248.441 87.4375 248.767C87.858 249.093 88.3712 249.256 88.9773 249.256ZM98.1804 250.182C97.4645 250.182 96.8376 249.992 96.2997 249.614C95.7618 249.235 95.3414 248.706 95.0384 248.028C94.7391 247.35 94.5895 246.561 94.5895 245.659C94.5895 244.761 94.7391 243.975 95.0384 243.301C95.3414 242.623 95.7637 242.097 96.3054 241.722C96.8471 241.343 97.4777 241.153 98.1974 241.153C98.7277 241.153 99.169 241.248 99.5213 241.438C99.8736 241.623 100.156 241.854 100.368 242.131C100.58 242.407 100.745 242.676 100.862 242.938H100.953V238.364H101.97V250H100.982V248.381H100.862C100.745 248.646 100.578 248.919 100.362 249.199C100.146 249.475 99.8603 249.708 99.5043 249.898C99.152 250.087 98.7107 250.182 98.1804 250.182ZM98.2997 249.256C98.8641 249.256 99.3452 249.102 99.7429 248.795C100.141 248.485 100.444 248.059 100.652 247.517C100.864 246.972 100.97 246.347 100.97 245.642C100.97 244.945 100.866 244.33 100.658 243.795C100.449 243.258 100.146 242.837 99.7486 242.534C99.3509 242.227 98.8679 242.074 98.2997 242.074C97.7164 242.074 97.224 242.233 96.8224 242.551C96.4247 242.866 96.1217 243.292 95.9134 243.83C95.7088 244.367 95.6065 244.972 95.6065 245.642C95.6065 246.32 95.7107 246.932 95.919 247.477C96.1274 248.023 96.4304 248.456 96.8281 248.778C97.2296 249.097 97.7202 249.256 98.2997 249.256ZM108.379 250.182C107.565 250.182 106.86 249.992 106.266 249.614C105.671 249.231 105.211 248.703 104.885 248.028C104.563 247.35 104.402 246.57 104.402 245.688C104.402 244.809 104.563 244.028 104.885 243.347C105.211 242.661 105.66 242.125 106.232 241.739C106.807 241.348 107.472 241.153 108.226 241.153C108.699 241.153 109.156 241.241 109.595 241.415C110.035 241.585 110.429 241.848 110.777 242.205C111.129 242.557 111.408 243.002 111.612 243.54C111.817 244.074 111.919 244.706 111.919 245.438V245.938H105.101V245.045H110.885C110.885 244.485 110.771 243.981 110.544 243.534C110.321 243.083 110.008 242.727 109.607 242.466C109.209 242.205 108.749 242.074 108.226 242.074C107.673 242.074 107.186 242.222 106.766 242.517C106.345 242.812 106.016 243.203 105.777 243.688C105.542 244.172 105.423 244.703 105.419 245.278V245.812C105.419 246.506 105.538 247.112 105.777 247.631C106.019 248.146 106.362 248.545 106.805 248.83C107.249 249.114 107.773 249.256 108.379 249.256C108.792 249.256 109.154 249.191 109.464 249.062C109.779 248.934 110.042 248.761 110.254 248.545C110.47 248.326 110.633 248.085 110.743 247.824L111.703 248.136C111.571 248.504 111.353 248.843 111.05 249.153C110.75 249.464 110.375 249.714 109.925 249.903C109.478 250.089 108.963 250.182 108.379 250.182ZM115.159 238.364V250H114.148V238.364H115.159Z" fill="white"/>
<path d="M51.6591 104H50.5909C50.5114 103.602 50.3674 103.235 50.1591 102.898C49.9545 102.557 49.697 102.259 49.3864 102.006C49.0758 101.752 48.7235 101.555 48.3295 101.415C47.9356 101.275 47.5095 101.205 47.0511 101.205C46.3163 101.205 45.6458 101.396 45.0398 101.778C44.4375 102.161 43.9545 102.723 43.5909 103.466C43.2311 104.205 43.0511 105.11 43.0511 106.182C43.0511 107.261 43.2311 108.17 43.5909 108.909C43.9545 109.648 44.4375 110.208 45.0398 110.591C45.6458 110.97 46.3163 111.159 47.0511 111.159C47.5095 111.159 47.9356 111.089 48.3295 110.949C48.7235 110.809 49.0758 110.614 49.3864 110.364C49.697 110.11 49.9545 109.812 50.1591 109.472C50.3674 109.131 50.5114 108.761 50.5909 108.364H51.6591C51.5644 108.898 51.3864 109.396 51.125 109.858C50.8674 110.316 50.5379 110.718 50.1364 111.062C49.7386 111.407 49.2803 111.676 48.7614 111.869C48.2424 112.062 47.6723 112.159 47.0511 112.159C46.0739 112.159 45.2064 111.915 44.4489 111.426C43.6913 110.934 43.0966 110.241 42.6648 109.347C42.2367 108.453 42.0227 107.398 42.0227 106.182C42.0227 104.966 42.2367 103.911 42.6648 103.017C43.0966 102.123 43.6913 101.432 44.4489 100.943C45.2064 100.451 46.0739 100.205 47.0511 100.205C47.6723 100.205 48.2424 100.301 48.7614 100.494C49.2803 100.684 49.7386 100.953 50.1364 101.301C50.5379 101.646 50.8674 102.047 51.125 102.506C51.3864 102.964 51.5644 103.462 51.6591 104ZM57.3366 112.182C56.5829 112.182 55.9162 111.991 55.3366 111.608C54.7609 111.225 54.3101 110.697 53.9844 110.023C53.6586 109.345 53.4957 108.562 53.4957 107.676C53.4957 106.782 53.6586 105.996 53.9844 105.318C54.3101 104.636 54.7609 104.106 55.3366 103.727C55.9162 103.345 56.5829 103.153 57.3366 103.153C58.0904 103.153 58.7552 103.345 59.331 103.727C59.9067 104.11 60.3575 104.64 60.6832 105.318C61.0128 105.996 61.1776 106.782 61.1776 107.676C61.1776 108.562 61.0147 109.345 60.6889 110.023C60.3632 110.697 59.9105 111.225 59.331 111.608C58.7552 111.991 58.0904 112.182 57.3366 112.182ZM57.3366 111.256C57.9427 111.256 58.456 111.093 58.8764 110.767C59.2969 110.441 59.6151 110.008 59.831 109.466C60.0507 108.924 60.1605 108.328 60.1605 107.676C60.1605 107.025 60.0507 106.426 59.831 105.881C59.6151 105.335 59.2969 104.898 58.8764 104.568C58.456 104.239 57.9427 104.074 57.3366 104.074C56.7344 104.074 56.2211 104.239 55.7969 104.568C55.3764 104.898 55.0563 105.335 54.8366 105.881C54.6207 106.426 54.5128 107.025 54.5128 107.676C54.5128 108.328 54.6207 108.924 54.8366 109.466C55.0563 110.008 55.3764 110.441 55.7969 110.767C56.2173 111.093 56.7306 111.256 57.3366 111.256ZM63.3977 112V103.273H64.3807V104.614H64.4716C64.6458 104.163 64.9356 103.809 65.3409 103.551C65.75 103.29 66.2405 103.159 66.8125 103.159C67.4148 103.159 67.9091 103.301 68.2955 103.585C68.6856 103.866 68.9773 104.252 69.1705 104.744H69.2443C69.4413 104.259 69.7614 103.875 70.2045 103.591C70.6515 103.303 71.1932 103.159 71.8295 103.159C72.6402 103.159 73.2803 103.415 73.75 103.926C74.2197 104.434 74.4545 105.176 74.4545 106.153V112H73.4432V106.153C73.4432 105.464 73.267 104.947 72.9148 104.602C72.5625 104.258 72.0985 104.085 71.5227 104.085C70.8561 104.085 70.3428 104.29 69.983 104.699C69.6231 105.108 69.4432 105.627 69.4432 106.256V112H68.4091V106.062C68.4091 105.472 68.2443 104.994 67.9148 104.631C67.5852 104.267 67.1212 104.085 66.5227 104.085C66.1212 104.085 65.7595 104.184 65.4375 104.381C65.1193 104.578 64.8674 104.852 64.6818 105.205C64.5 105.553 64.4091 105.955 64.4091 106.409V112H63.3977ZM77.1321 115.273V103.273H78.1151V104.938H78.2344C78.3556 104.676 78.5223 104.409 78.7344 104.136C78.9465 103.86 79.2268 103.627 79.5753 103.438C79.9276 103.248 80.3707 103.153 80.9048 103.153C81.6245 103.153 82.2533 103.343 82.7912 103.722C83.3329 104.097 83.7533 104.623 84.0526 105.301C84.3556 105.975 84.5071 106.761 84.5071 107.659C84.5071 108.561 84.3556 109.35 84.0526 110.028C83.7533 110.706 83.3329 111.235 82.7912 111.614C82.2533 111.992 81.6283 112.182 80.9162 112.182C80.3897 112.182 79.9484 112.087 79.5923 111.898C79.2401 111.708 78.9541 111.475 78.7344 111.199C78.5185 110.919 78.3518 110.646 78.2344 110.381H78.1435V115.273H77.1321ZM78.1321 107.642C78.1321 108.347 78.2363 108.972 78.4446 109.517C78.6567 110.059 78.9598 110.485 79.3537 110.795C79.7514 111.102 80.2325 111.256 80.7969 111.256C81.3764 111.256 81.8651 111.097 82.2628 110.778C82.6643 110.456 82.9692 110.023 83.1776 109.477C83.3897 108.932 83.4957 108.32 83.4957 107.642C83.4957 106.972 83.3916 106.367 83.1832 105.83C82.9787 105.292 82.6757 104.866 82.2741 104.551C81.8726 104.233 81.3802 104.074 80.7969 104.074C80.2287 104.074 79.7457 104.227 79.348 104.534C78.9503 104.837 78.6473 105.258 78.4389 105.795C78.2344 106.33 78.1321 106.945 78.1321 107.642ZM90.1179 112.182C89.3641 112.182 88.6974 111.991 88.1179 111.608C87.5421 111.225 87.0914 110.697 86.7656 110.023C86.4399 109.345 86.277 108.562 86.277 107.676C86.277 106.782 86.4399 105.996 86.7656 105.318C87.0914 104.636 87.5421 104.106 88.1179 103.727C88.6974 103.345 89.3641 103.153 90.1179 103.153C90.8717 103.153 91.5365 103.345 92.1122 103.727C92.688 104.11 93.1387 104.64 93.4645 105.318C93.794 105.996 93.9588 106.782 93.9588 107.676C93.9588 108.562 93.7959 109.345 93.4702 110.023C93.1444 110.697 92.6918 111.225 92.1122 111.608C91.5365 111.991 90.8717 112.182 90.1179 112.182ZM90.1179 111.256C90.724 111.256 91.2372 111.093 91.6577 110.767C92.0781 110.441 92.3963 110.008 92.6122 109.466C92.8319 108.924 92.9418 108.328 92.9418 107.676C92.9418 107.025 92.8319 106.426 92.6122 105.881C92.3963 105.335 92.0781 104.898 91.6577 104.568C91.2372 104.239 90.724 104.074 90.1179 104.074C89.5156 104.074 89.0024 104.239 88.5781 104.568C88.1577 104.898 87.8376 105.335 87.6179 105.881C87.402 106.426 87.294 107.025 87.294 107.676C87.294 108.328 87.402 108.924 87.6179 109.466C87.8376 110.008 88.1577 110.441 88.5781 110.767C88.9986 111.093 89.5118 111.256 90.1179 111.256ZM97.1903 106.545V112H96.179V103.273H97.1619V104.642H97.2528C97.4574 104.195 97.7756 103.837 98.2074 103.568C98.643 103.295 99.1809 103.159 99.821 103.159C100.408 103.159 100.923 103.282 101.366 103.528C101.813 103.771 102.16 104.129 102.406 104.602C102.656 105.076 102.781 105.657 102.781 106.347V112H101.77V106.409C101.77 105.693 101.569 105.127 101.168 104.71C100.77 104.294 100.236 104.085 99.5653 104.085C99.107 104.085 98.6998 104.184 98.3438 104.381C97.9877 104.578 97.7055 104.862 97.4972 105.233C97.2926 105.6 97.1903 106.038 97.1903 106.545ZM108.973 112.182C108.159 112.182 107.454 111.992 106.859 111.614C106.265 111.231 105.804 110.703 105.479 110.028C105.157 109.35 104.996 108.57 104.996 107.688C104.996 106.809 105.157 106.028 105.479 105.347C105.804 104.661 106.253 104.125 106.825 103.739C107.401 103.348 108.066 103.153 108.82 103.153C109.293 103.153 109.75 103.241 110.189 103.415C110.628 103.585 111.022 103.848 111.371 104.205C111.723 104.557 112.001 105.002 112.206 105.54C112.411 106.074 112.513 106.706 112.513 107.438V107.938H105.695V107.045H111.479C111.479 106.485 111.365 105.981 111.138 105.534C110.914 105.083 110.602 104.727 110.2 104.466C109.803 104.205 109.342 104.074 108.82 104.074C108.267 104.074 107.78 104.222 107.359 104.517C106.939 104.812 106.609 105.203 106.371 105.688C106.136 106.172 106.017 106.703 106.013 107.278V107.812C106.013 108.506 106.132 109.112 106.371 109.631C106.613 110.146 106.956 110.545 107.399 110.83C107.842 111.114 108.367 111.256 108.973 111.256C109.386 111.256 109.748 111.191 110.058 111.062C110.373 110.934 110.636 110.761 110.848 110.545C111.064 110.326 111.227 110.085 111.337 109.824L112.297 110.136C112.164 110.504 111.946 110.843 111.643 111.153C111.344 111.464 110.969 111.714 110.518 111.903C110.071 112.089 109.556 112.182 108.973 112.182ZM115.753 106.545V112H114.741V103.273H115.724V104.642H115.815C116.02 104.195 116.338 103.837 116.77 103.568C117.205 103.295 117.743 103.159 118.384 103.159C118.971 103.159 119.486 103.282 119.929 103.528C120.376 103.771 120.723 104.129 120.969 104.602C121.219 105.076 121.344 105.657 121.344 106.347V112H120.332V106.409C120.332 105.693 120.132 105.127 119.73 104.71C119.332 104.294 118.798 104.085 118.128 104.085C117.67 104.085 117.262 104.184 116.906 104.381C116.55 104.578 116.268 104.862 116.06 105.233C115.855 105.6 115.753 106.038 115.753 106.545ZM127.445 103.273V104.153H123.28V103.273H127.445ZM124.581 101.182H125.598V109.722C125.598 110.085 125.661 110.371 125.786 110.58C125.911 110.784 126.073 110.93 126.274 111.017C126.475 111.1 126.689 111.142 126.916 111.142C127.049 111.142 127.162 111.134 127.257 111.119C127.352 111.1 127.435 111.081 127.507 111.062L127.723 111.977C127.625 112.015 127.503 112.049 127.359 112.08C127.215 112.114 127.037 112.131 126.825 112.131C126.454 112.131 126.096 112.049 125.751 111.886C125.411 111.723 125.13 111.481 124.911 111.159C124.691 110.837 124.581 110.438 124.581 109.96V101.182ZM130.139 112V100.364H134.065C134.823 100.364 135.454 100.496 135.957 100.761C136.465 101.027 136.846 101.388 137.099 101.847C137.353 102.305 137.48 102.826 137.48 103.409C137.48 103.894 137.399 104.309 137.236 104.653C137.073 104.998 136.851 105.277 136.571 105.489C136.291 105.701 135.978 105.854 135.634 105.949V106.04C136.009 106.066 136.372 106.199 136.724 106.438C137.077 106.672 137.366 107.002 137.594 107.426C137.821 107.85 137.935 108.358 137.935 108.949C137.935 109.536 137.804 110.061 137.543 110.523C137.281 110.981 136.88 111.343 136.338 111.608C135.8 111.869 135.115 112 134.281 112H130.139ZM131.202 111.045H134.281C135.179 111.045 135.842 110.847 136.27 110.449C136.702 110.051 136.918 109.551 136.918 108.949C136.918 108.506 136.81 108.104 136.594 107.744C136.382 107.381 136.08 107.093 135.69 106.881C135.304 106.669 134.849 106.562 134.327 106.562H131.202V111.045ZM131.202 105.619H134.162C134.62 105.619 135.022 105.525 135.366 105.335C135.711 105.146 135.98 104.884 136.173 104.551C136.366 104.218 136.463 103.837 136.463 103.409C136.463 102.792 136.262 102.29 135.861 101.903C135.459 101.513 134.861 101.318 134.065 101.318H131.202V105.619ZM142.726 112.199C142.199 112.199 141.718 112.097 141.283 111.892C140.847 111.684 140.5 111.384 140.243 110.994C139.985 110.6 139.857 110.123 139.857 109.562C139.857 109.131 139.938 108.767 140.101 108.472C140.264 108.176 140.495 107.934 140.794 107.744C141.093 107.555 141.447 107.405 141.857 107.295C142.266 107.186 142.716 107.1 143.209 107.04C143.697 106.979 144.11 106.926 144.447 106.881C144.788 106.835 145.048 106.763 145.226 106.665C145.404 106.566 145.493 106.407 145.493 106.188V105.983C145.493 105.388 145.315 104.92 144.959 104.58C144.607 104.235 144.099 104.062 143.436 104.062C142.807 104.062 142.294 104.201 141.896 104.477C141.502 104.754 141.226 105.08 141.067 105.455L140.107 105.108C140.304 104.631 140.576 104.25 140.925 103.966C141.273 103.678 141.663 103.472 142.095 103.347C142.527 103.218 142.964 103.153 143.408 103.153C143.741 103.153 144.088 103.197 144.447 103.284C144.811 103.371 145.148 103.523 145.459 103.739C145.769 103.951 146.021 104.248 146.214 104.631C146.408 105.009 146.504 105.491 146.504 106.074V112H145.493V110.619H145.43C145.309 110.877 145.129 111.127 144.891 111.369C144.652 111.612 144.353 111.811 143.993 111.966C143.633 112.121 143.211 112.199 142.726 112.199ZM142.862 111.273C143.4 111.273 143.866 111.153 144.26 110.915C144.654 110.676 144.957 110.36 145.169 109.966C145.385 109.568 145.493 109.131 145.493 108.653V107.392C145.417 107.464 145.29 107.528 145.112 107.585C144.938 107.642 144.735 107.693 144.504 107.739C144.277 107.78 144.05 107.816 143.822 107.847C143.595 107.877 143.391 107.903 143.209 107.926C142.716 107.987 142.296 108.081 141.947 108.21C141.599 108.339 141.332 108.517 141.146 108.744C140.961 108.968 140.868 109.256 140.868 109.608C140.868 110.138 141.057 110.549 141.436 110.841C141.815 111.129 142.29 111.273 142.862 111.273ZM155.058 105.188L154.132 105.449C154.041 105.187 153.912 104.951 153.746 104.739C153.579 104.527 153.361 104.358 153.092 104.233C152.827 104.108 152.498 104.045 152.104 104.045C151.513 104.045 151.028 104.186 150.649 104.466C150.27 104.746 150.081 105.108 150.081 105.551C150.081 105.926 150.21 106.231 150.467 106.466C150.729 106.697 151.13 106.881 151.672 107.017L152.99 107.341C153.721 107.519 154.268 107.801 154.632 108.188C155 108.574 155.183 109.059 155.183 109.642C155.183 110.134 155.047 110.572 154.774 110.955C154.501 111.337 154.121 111.638 153.632 111.858C153.147 112.074 152.585 112.182 151.945 112.182C151.092 112.182 150.39 111.991 149.837 111.608C149.284 111.222 148.929 110.665 148.774 109.938L149.746 109.699C149.871 110.218 150.115 110.61 150.479 110.875C150.846 111.14 151.329 111.273 151.928 111.273C152.598 111.273 153.134 111.123 153.536 110.824C153.937 110.521 154.138 110.142 154.138 109.688C154.138 109.335 154.02 109.04 153.786 108.801C153.551 108.559 153.195 108.381 152.717 108.267L151.291 107.926C150.534 107.744 149.973 107.456 149.609 107.062C149.246 106.669 149.064 106.18 149.064 105.597C149.064 105.116 149.195 104.693 149.456 104.33C149.717 103.962 150.077 103.674 150.536 103.466C150.994 103.258 151.517 103.153 152.104 103.153C152.903 103.153 153.541 103.335 154.018 103.699C154.5 104.059 154.846 104.555 155.058 105.188ZM160.926 112.182C160.112 112.182 159.407 111.992 158.812 111.614C158.218 111.231 157.758 110.703 157.432 110.028C157.11 109.35 156.949 108.57 156.949 107.688C156.949 106.809 157.11 106.028 157.432 105.347C157.758 104.661 158.206 104.125 158.778 103.739C159.354 103.348 160.019 103.153 160.773 103.153C161.246 103.153 161.703 103.241 162.142 103.415C162.581 103.585 162.975 103.848 163.324 104.205C163.676 104.557 163.955 105.002 164.159 105.54C164.364 106.074 164.466 106.706 164.466 107.438V107.938H157.648V107.045H163.432C163.432 106.485 163.318 105.981 163.091 105.534C162.867 105.083 162.555 104.727 162.153 104.466C161.756 104.205 161.295 104.074 160.773 104.074C160.22 104.074 159.733 104.222 159.312 104.517C158.892 104.812 158.563 105.203 158.324 105.688C158.089 106.172 157.97 106.703 157.966 107.278V107.812C157.966 108.506 158.085 109.112 158.324 109.631C158.566 110.146 158.909 110.545 159.352 110.83C159.795 111.114 160.32 111.256 160.926 111.256C161.339 111.256 161.701 111.191 162.011 111.062C162.326 110.934 162.589 110.761 162.801 110.545C163.017 110.326 163.18 110.085 163.29 109.824L164.25 110.136C164.117 110.504 163.9 110.843 163.597 111.153C163.297 111.464 162.922 111.714 162.472 111.903C162.025 112.089 161.509 112.182 160.926 112.182ZM171.405 112V100.364H175.331C176.089 100.364 176.719 100.496 177.223 100.761C177.731 101.027 178.111 101.388 178.365 101.847C178.619 102.305 178.746 102.826 178.746 103.409C178.746 103.894 178.664 104.309 178.501 104.653C178.339 104.998 178.117 105.277 177.837 105.489C177.556 105.701 177.244 105.854 176.899 105.949V106.04C177.274 106.066 177.638 106.199 177.99 106.438C178.342 106.672 178.632 107.002 178.859 107.426C179.087 107.85 179.2 108.358 179.2 108.949C179.2 109.536 179.07 110.061 178.808 110.523C178.547 110.981 178.145 111.343 177.604 111.608C177.066 111.869 176.38 112 175.547 112H171.405ZM172.467 111.045H175.547C176.445 111.045 177.107 110.847 177.536 110.449C177.967 110.051 178.183 109.551 178.183 108.949C178.183 108.506 178.075 108.104 177.859 107.744C177.647 107.381 177.346 107.093 176.956 106.881C176.57 106.669 176.115 106.562 175.592 106.562H172.467V111.045ZM172.467 105.619H175.428C175.886 105.619 176.287 105.525 176.632 105.335C176.977 105.146 177.246 104.884 177.439 104.551C177.632 104.218 177.729 103.837 177.729 103.409C177.729 102.792 177.528 102.29 177.126 101.903C176.725 101.513 176.126 101.318 175.331 101.318H172.467V105.619ZM184.946 112.182C184.192 112.182 183.526 111.991 182.946 111.608C182.37 111.225 181.92 110.697 181.594 110.023C181.268 109.345 181.105 108.562 181.105 107.676C181.105 106.782 181.268 105.996 181.594 105.318C181.92 104.636 182.37 104.106 182.946 103.727C183.526 103.345 184.192 103.153 184.946 103.153C185.7 103.153 186.365 103.345 186.94 103.727C187.516 104.11 187.967 104.64 188.293 105.318C188.622 105.996 188.787 106.782 188.787 107.676C188.787 108.562 188.624 109.345 188.298 110.023C187.973 110.697 187.52 111.225 186.94 111.608C186.365 111.991 185.7 112.182 184.946 112.182ZM184.946 111.256C185.552 111.256 186.065 111.093 186.486 110.767C186.906 110.441 187.224 110.008 187.44 109.466C187.66 108.924 187.77 108.328 187.77 107.676C187.77 107.025 187.66 106.426 187.44 105.881C187.224 105.335 186.906 104.898 186.486 104.568C186.065 104.239 185.552 104.074 184.946 104.074C184.344 104.074 183.83 104.239 183.406 104.568C182.986 104.898 182.666 105.335 182.446 105.881C182.23 106.426 182.122 107.025 182.122 107.676C182.122 108.328 182.23 108.924 182.446 109.466C182.666 110.008 182.986 110.441 183.406 110.767C183.827 111.093 184.34 111.256 184.946 111.256ZM194.445 103.273V104.153H190.28V103.273H194.445ZM191.581 101.182H192.598V109.722C192.598 110.085 192.661 110.371 192.786 110.58C192.911 110.784 193.073 110.93 193.274 111.017C193.475 111.1 193.689 111.142 193.916 111.142C194.049 111.142 194.162 111.134 194.257 111.119C194.352 111.1 194.435 111.081 194.507 111.062L194.723 111.977C194.625 112.015 194.503 112.049 194.359 112.08C194.215 112.114 194.037 112.131 193.825 112.131C193.454 112.131 193.096 112.049 192.751 111.886C192.411 111.723 192.13 111.481 191.911 111.159C191.691 110.837 191.581 110.438 191.581 109.96V101.182ZM201.452 112V100.364H205.207C206.033 100.364 206.723 100.513 207.276 100.812C207.832 101.108 208.251 101.519 208.531 102.045C208.815 102.568 208.957 103.169 208.957 103.847C208.957 104.525 208.815 105.123 208.531 105.642C208.251 106.161 207.834 106.566 207.281 106.858C206.728 107.15 206.043 107.295 205.224 107.295H202.026V106.324H205.196C205.802 106.324 206.306 106.223 206.707 106.023C207.113 105.822 207.414 105.536 207.611 105.165C207.812 104.794 207.912 104.354 207.912 103.847C207.912 103.339 207.812 102.896 207.611 102.517C207.41 102.134 207.107 101.839 206.702 101.631C206.3 101.422 205.793 101.318 205.179 101.318H202.514V112H201.452ZM206.582 106.75L209.446 112H208.219L205.384 106.75H206.582ZM214.77 112.182C213.955 112.182 213.251 111.992 212.656 111.614C212.062 111.231 211.601 110.703 211.276 110.028C210.954 109.35 210.793 108.57 210.793 107.688C210.793 106.809 210.954 106.028 211.276 105.347C211.601 104.661 212.05 104.125 212.622 103.739C213.198 103.348 213.863 103.153 214.616 103.153C215.09 103.153 215.546 103.241 215.986 103.415C216.425 103.585 216.819 103.848 217.168 104.205C217.52 104.557 217.798 105.002 218.003 105.54C218.207 106.074 218.31 106.706 218.31 107.438V107.938H211.491V107.045H217.276C217.276 106.485 217.162 105.981 216.935 105.534C216.711 105.083 216.399 104.727 215.997 104.466C215.599 104.205 215.139 104.074 214.616 104.074C214.063 104.074 213.577 104.222 213.156 104.517C212.736 104.812 212.406 105.203 212.168 105.688C211.933 106.172 211.813 106.703 211.81 107.278V107.812C211.81 108.506 211.929 109.112 212.168 109.631C212.41 110.146 212.753 110.545 213.196 110.83C213.639 111.114 214.164 111.256 214.77 111.256C215.183 111.256 215.545 111.191 215.855 111.062C216.17 110.934 216.433 110.761 216.645 110.545C216.861 110.326 217.024 110.085 217.134 109.824L218.094 110.136C217.961 110.504 217.743 110.843 217.44 111.153C217.141 111.464 216.766 111.714 216.315 111.903C215.868 112.089 215.353 112.182 214.77 112.182ZM226.402 105.188L225.476 105.449C225.385 105.187 225.256 104.951 225.089 104.739C224.923 104.527 224.705 104.358 224.436 104.233C224.171 104.108 223.841 104.045 223.447 104.045C222.857 104.045 222.372 104.186 221.993 104.466C221.614 104.746 221.425 105.108 221.425 105.551C221.425 105.926 221.554 106.231 221.811 106.466C222.072 106.697 222.474 106.881 223.016 107.017L224.334 107.341C225.065 107.519 225.612 107.801 225.976 108.188C226.343 108.574 226.527 109.059 226.527 109.642C226.527 110.134 226.391 110.572 226.118 110.955C225.845 111.337 225.464 111.638 224.976 111.858C224.491 112.074 223.929 112.182 223.288 112.182C222.436 112.182 221.733 111.991 221.18 111.608C220.627 111.222 220.273 110.665 220.118 109.938L221.089 109.699C221.214 110.218 221.459 110.61 221.822 110.875C222.19 111.14 222.673 111.273 223.271 111.273C223.942 111.273 224.478 111.123 224.879 110.824C225.281 110.521 225.482 110.142 225.482 109.688C225.482 109.335 225.364 109.04 225.129 108.801C224.894 108.559 224.538 108.381 224.061 108.267L222.635 107.926C221.877 107.744 221.317 107.456 220.953 107.062C220.589 106.669 220.408 106.18 220.408 105.597C220.408 105.116 220.538 104.693 220.8 104.33C221.061 103.962 221.421 103.674 221.879 103.466C222.338 103.258 222.86 103.153 223.447 103.153C224.247 103.153 224.885 103.335 225.362 103.699C225.843 104.059 226.19 104.555 226.402 105.188ZM228.741 115.273V103.273H229.724V104.938H229.844C229.965 104.676 230.132 104.409 230.344 104.136C230.556 103.86 230.836 103.627 231.185 103.438C231.537 103.248 231.98 103.153 232.514 103.153C233.234 103.153 233.863 103.343 234.401 103.722C234.942 104.097 235.363 104.623 235.662 105.301C235.965 105.975 236.116 106.761 236.116 107.659C236.116 108.561 235.965 109.35 235.662 110.028C235.363 110.706 234.942 111.235 234.401 111.614C233.863 111.992 233.238 112.182 232.526 112.182C231.999 112.182 231.558 112.087 231.202 111.898C230.849 111.708 230.563 111.475 230.344 111.199C230.128 110.919 229.961 110.646 229.844 110.381H229.753V115.273H228.741ZM229.741 107.642C229.741 108.347 229.846 108.972 230.054 109.517C230.266 110.059 230.569 110.485 230.963 110.795C231.361 111.102 231.842 111.256 232.406 111.256C232.986 111.256 233.474 111.097 233.872 110.778C234.274 110.456 234.579 110.023 234.787 109.477C234.999 108.932 235.105 108.32 235.105 107.642C235.105 106.972 235.001 106.367 234.793 105.83C234.588 105.292 234.285 104.866 233.884 104.551C233.482 104.233 232.99 104.074 232.406 104.074C231.838 104.074 231.355 104.227 230.957 104.534C230.56 104.837 230.257 105.258 230.048 105.795C229.844 106.33 229.741 106.945 229.741 107.642ZM241.727 112.182C240.973 112.182 240.307 111.991 239.727 111.608C239.152 111.225 238.701 110.697 238.375 110.023C238.049 109.345 237.886 108.562 237.886 107.676C237.886 106.782 238.049 105.996 238.375 105.318C238.701 104.636 239.152 104.106 239.727 103.727C240.307 103.345 240.973 103.153 241.727 103.153C242.481 103.153 243.146 103.345 243.722 103.727C244.297 104.11 244.748 104.64 245.074 105.318C245.403 105.996 245.568 106.782 245.568 107.676C245.568 108.562 245.405 109.345 245.08 110.023C244.754 110.697 244.301 111.225 243.722 111.608C243.146 111.991 242.481 112.182 241.727 112.182ZM241.727 111.256C242.333 111.256 242.847 111.093 243.267 110.767C243.688 110.441 244.006 110.008 244.222 109.466C244.441 108.924 244.551 108.328 244.551 107.676C244.551 107.025 244.441 106.426 244.222 105.881C244.006 105.335 243.688 104.898 243.267 104.568C242.847 104.239 242.333 104.074 241.727 104.074C241.125 104.074 240.612 104.239 240.188 104.568C239.767 104.898 239.447 105.335 239.227 105.881C239.011 106.426 238.903 107.025 238.903 107.676C238.903 108.328 239.011 108.924 239.227 109.466C239.447 110.008 239.767 110.441 240.188 110.767C240.608 111.093 241.121 111.256 241.727 111.256ZM248.8 106.545V112H247.788V103.273H248.771V104.642H248.862C249.067 104.195 249.385 103.837 249.817 103.568C250.252 103.295 250.79 103.159 251.43 103.159C252.018 103.159 252.533 103.282 252.976 103.528C253.423 103.771 253.769 104.129 254.016 104.602C254.266 105.076 254.391 105.657 254.391 106.347V112H253.379V106.409C253.379 105.693 253.179 105.127 252.777 104.71C252.379 104.294 251.845 104.085 251.175 104.085C250.716 104.085 250.309 104.184 249.953 104.381C249.597 104.578 249.315 104.862 249.107 105.233C248.902 105.6 248.8 106.038 248.8 106.545ZM262.918 105.188L261.991 105.449C261.901 105.187 261.772 104.951 261.605 104.739C261.438 104.527 261.221 104.358 260.952 104.233C260.687 104.108 260.357 104.045 259.963 104.045C259.372 104.045 258.887 104.186 258.509 104.466C258.13 104.746 257.94 105.108 257.94 105.551C257.94 105.926 258.069 106.231 258.327 106.466C258.588 106.697 258.99 106.881 259.531 107.017L260.849 107.341C261.58 107.519 262.128 107.801 262.491 108.188C262.859 108.574 263.043 109.059 263.043 109.642C263.043 110.134 262.906 110.572 262.634 110.955C262.361 111.337 261.98 111.638 261.491 111.858C261.007 112.074 260.444 112.182 259.804 112.182C258.952 112.182 258.249 111.991 257.696 111.608C257.143 111.222 256.789 110.665 256.634 109.938L257.605 109.699C257.73 110.218 257.974 110.61 258.338 110.875C258.705 111.14 259.188 111.273 259.787 111.273C260.457 111.273 260.993 111.123 261.395 110.824C261.796 110.521 261.997 110.142 261.997 109.688C261.997 109.335 261.88 109.04 261.645 108.801C261.41 108.559 261.054 108.381 260.577 108.267L259.151 107.926C258.393 107.744 257.832 107.456 257.469 107.062C257.105 106.669 256.923 106.18 256.923 105.597C256.923 105.116 257.054 104.693 257.315 104.33C257.577 103.962 257.937 103.674 258.395 103.466C258.853 103.258 259.376 103.153 259.963 103.153C260.762 103.153 261.401 103.335 261.878 103.699C262.359 104.059 262.705 104.555 262.918 105.188ZM268.786 112.182C267.971 112.182 267.267 111.992 266.672 111.614C266.077 111.231 265.617 110.703 265.291 110.028C264.969 109.35 264.808 108.57 264.808 107.688C264.808 106.809 264.969 106.028 265.291 105.347C265.617 104.661 266.066 104.125 266.638 103.739C267.214 103.348 267.878 103.153 268.632 103.153C269.106 103.153 269.562 103.241 270.001 103.415C270.441 103.585 270.835 103.848 271.183 104.205C271.536 104.557 271.814 105.002 272.018 105.54C272.223 106.074 272.325 106.706 272.325 107.438V107.938H265.507V107.045H271.291C271.291 106.485 271.178 105.981 270.95 105.534C270.727 105.083 270.414 104.727 270.013 104.466C269.615 104.205 269.155 104.074 268.632 104.074C268.079 104.074 267.592 104.222 267.172 104.517C266.751 104.812 266.422 105.203 266.183 105.688C265.948 106.172 265.829 106.703 265.825 107.278V107.812C265.825 108.506 265.945 109.112 266.183 109.631C266.426 110.146 266.768 110.545 267.212 110.83C267.655 111.114 268.179 111.256 268.786 111.256C269.198 111.256 269.56 111.191 269.871 111.062C270.185 110.934 270.448 110.761 270.661 110.545C270.876 110.326 271.039 110.085 271.149 109.824L272.109 110.136C271.977 110.504 271.759 110.843 271.456 111.153C271.157 111.464 270.782 111.714 270.331 111.903C269.884 112.089 269.369 112.182 268.786 112.182Z" fill="white"/>
<path d="M270.545 231V219.364H271.608V224.699H278.21V219.364H279.273V231H278.21V225.653H271.608V231H270.545ZM285.585 222.273V223.153H281.42V222.273H285.585ZM282.722 220.182H283.739V228.722C283.739 229.085 283.801 229.371 283.926 229.58C284.051 229.784 284.214 229.93 284.415 230.017C284.616 230.1 284.83 230.142 285.057 230.142C285.189 230.142 285.303 230.134 285.398 230.119C285.492 230.1 285.576 230.081 285.648 230.062L285.864 230.977C285.765 231.015 285.644 231.049 285.5 231.08C285.356 231.114 285.178 231.131 284.966 231.131C284.595 231.131 284.237 231.049 283.892 230.886C283.551 230.723 283.271 230.481 283.051 230.159C282.831 229.837 282.722 229.438 282.722 228.96V220.182ZM291.32 222.273V223.153H287.155V222.273H291.32ZM288.456 220.182H289.473V228.722C289.473 229.085 289.536 229.371 289.661 229.58C289.786 229.784 289.948 229.93 290.149 230.017C290.35 230.1 290.564 230.142 290.791 230.142C290.924 230.142 291.037 230.134 291.132 230.119C291.227 230.1 291.31 230.081 291.382 230.062L291.598 230.977C291.5 231.015 291.378 231.049 291.234 231.08C291.09 231.114 290.912 231.131 290.7 231.131C290.329 231.131 289.971 231.049 289.626 230.886C289.286 230.723 289.005 230.481 288.786 230.159C288.566 229.837 288.456 229.438 288.456 228.96V220.182ZM293.616 234.273V222.273H294.599V223.938H294.719C294.84 223.676 295.007 223.409 295.219 223.136C295.431 222.86 295.711 222.627 296.06 222.438C296.412 222.248 296.855 222.153 297.389 222.153C298.109 222.153 298.738 222.343 299.276 222.722C299.817 223.097 300.238 223.623 300.537 224.301C300.84 224.975 300.991 225.761 300.991 226.659C300.991 227.561 300.84 228.35 300.537 229.028C300.238 229.706 299.817 230.235 299.276 230.614C298.738 230.992 298.113 231.182 297.401 231.182C296.874 231.182 296.433 231.087 296.077 230.898C295.724 230.708 295.438 230.475 295.219 230.199C295.003 229.919 294.836 229.646 294.719 229.381H294.628V234.273H293.616ZM294.616 226.642C294.616 227.347 294.721 227.972 294.929 228.517C295.141 229.059 295.444 229.485 295.838 229.795C296.236 230.102 296.717 230.256 297.281 230.256C297.861 230.256 298.349 230.097 298.747 229.778C299.149 229.456 299.454 229.023 299.662 228.477C299.874 227.932 299.98 227.32 299.98 226.642C299.98 225.972 299.876 225.367 299.668 224.83C299.463 224.292 299.16 223.866 298.759 223.551C298.357 223.233 297.865 223.074 297.281 223.074C296.713 223.074 296.23 223.227 295.832 223.534C295.435 223.837 295.132 224.258 294.923 224.795C294.719 225.33 294.616 225.945 294.616 226.642ZM303.42 231V219.364H307.347C308.104 219.364 308.735 219.496 309.239 219.761C309.746 220.027 310.127 220.388 310.381 220.847C310.634 221.305 310.761 221.826 310.761 222.409C310.761 222.894 310.68 223.309 310.517 223.653C310.354 223.998 310.133 224.277 309.852 224.489C309.572 224.701 309.259 224.854 308.915 224.949V225.04C309.29 225.066 309.653 225.199 310.006 225.438C310.358 225.672 310.648 226.002 310.875 226.426C311.102 226.85 311.216 227.358 311.216 227.949C311.216 228.536 311.085 229.061 310.824 229.523C310.562 229.981 310.161 230.343 309.619 230.608C309.081 230.869 308.396 231 307.562 231H303.42ZM304.483 230.045H307.562C308.46 230.045 309.123 229.847 309.551 229.449C309.983 229.051 310.199 228.551 310.199 227.949C310.199 227.506 310.091 227.104 309.875 226.744C309.663 226.381 309.362 226.093 308.972 225.881C308.585 225.669 308.131 225.562 307.608 225.562H304.483V230.045ZM304.483 224.619H307.443C307.902 224.619 308.303 224.525 308.648 224.335C308.992 224.146 309.261 223.884 309.455 223.551C309.648 223.218 309.744 222.837 309.744 222.409C309.744 221.792 309.544 221.29 309.142 220.903C308.741 220.513 308.142 220.318 307.347 220.318H304.483V224.619ZM316.962 231.182C316.208 231.182 315.541 230.991 314.962 230.608C314.386 230.225 313.935 229.697 313.609 229.023C313.284 228.345 313.121 227.562 313.121 226.676C313.121 225.782 313.284 224.996 313.609 224.318C313.935 223.636 314.386 223.106 314.962 222.727C315.541 222.345 316.208 222.153 316.962 222.153C317.715 222.153 318.38 222.345 318.956 222.727C319.532 223.11 319.982 223.64 320.308 224.318C320.638 224.996 320.803 225.782 320.803 226.676C320.803 227.562 320.64 228.345 320.314 229.023C319.988 229.697 319.536 230.225 318.956 230.608C318.38 230.991 317.715 231.182 316.962 231.182ZM316.962 230.256C317.568 230.256 318.081 230.093 318.501 229.767C318.922 229.441 319.24 229.008 319.456 228.466C319.676 227.924 319.786 227.328 319.786 226.676C319.786 226.025 319.676 225.426 319.456 224.881C319.24 224.335 318.922 223.898 318.501 223.568C318.081 223.239 317.568 223.074 316.962 223.074C316.359 223.074 315.846 223.239 315.422 223.568C315.001 223.898 314.681 224.335 314.462 224.881C314.246 225.426 314.138 226.025 314.138 226.676C314.138 227.328 314.246 227.924 314.462 228.466C314.681 229.008 315.001 229.441 315.422 229.767C315.842 230.093 316.356 230.256 316.962 230.256ZM326.46 222.273V223.153H322.295V222.273H326.46ZM323.597 220.182H324.614V228.722C324.614 229.085 324.676 229.371 324.801 229.58C324.926 229.784 325.089 229.93 325.29 230.017C325.491 230.1 325.705 230.142 325.932 230.142C326.064 230.142 326.178 230.134 326.273 230.119C326.367 230.1 326.451 230.081 326.523 230.062L326.739 230.977C326.64 231.015 326.519 231.049 326.375 231.08C326.231 231.114 326.053 231.131 325.841 231.131C325.47 231.131 325.112 231.049 324.767 230.886C324.426 230.723 324.146 230.481 323.926 230.159C323.706 229.837 323.597 229.438 323.597 228.96V220.182ZM333.467 231V219.364H334.53V230.045H340.075V231H333.467ZM342.268 231V222.273H343.286V231H342.268ZM342.786 220.773C342.577 220.773 342.399 220.703 342.251 220.562C342.104 220.419 342.03 220.246 342.03 220.045C342.03 219.845 342.104 219.674 342.251 219.534C342.399 219.39 342.577 219.318 342.786 219.318C342.994 219.318 343.172 219.39 343.32 219.534C343.467 219.674 343.541 219.845 343.541 220.045C343.541 220.246 343.467 220.419 343.32 220.562C343.172 220.703 342.994 220.773 342.786 220.773ZM346.17 231V219.364H347.188V223.938H347.278C347.392 223.676 347.555 223.407 347.767 223.131C347.983 222.854 348.265 222.623 348.614 222.438C348.966 222.248 349.409 222.153 349.943 222.153C350.659 222.153 351.288 222.343 351.83 222.722C352.371 223.097 352.794 223.623 353.097 224.301C353.4 224.975 353.551 225.761 353.551 226.659C353.551 227.561 353.4 228.35 353.097 229.028C352.797 229.706 352.377 230.235 351.835 230.614C351.297 230.992 350.672 231.182 349.96 231.182C349.43 231.182 348.987 231.087 348.631 230.898C348.278 230.708 347.994 230.475 347.778 230.199C347.563 229.919 347.396 229.646 347.278 229.381H347.153V231H346.17ZM347.17 226.642C347.17 227.347 347.275 227.972 347.483 228.517C347.695 229.059 347.998 229.485 348.392 229.795C348.79 230.102 349.271 230.256 349.835 230.256C350.415 230.256 350.905 230.097 351.307 229.778C351.708 229.456 352.013 229.023 352.222 228.477C352.43 227.932 352.534 227.32 352.534 226.642C352.534 225.972 352.43 225.367 352.222 224.83C352.017 224.292 351.714 223.866 351.312 223.551C350.911 223.233 350.419 223.074 349.835 223.074C349.267 223.074 348.784 223.227 348.386 223.534C347.992 223.837 347.691 224.258 347.483 224.795C347.275 225.33 347.17 225.945 347.17 226.642ZM355.773 231V222.273H356.756V223.614H356.83C357.004 223.174 357.307 222.82 357.739 222.551C358.174 222.278 358.667 222.142 359.216 222.142C359.299 222.142 359.392 222.144 359.494 222.148C359.597 222.152 359.682 222.155 359.75 222.159V223.188C359.705 223.18 359.625 223.169 359.511 223.153C359.398 223.138 359.275 223.131 359.142 223.131C358.688 223.131 358.282 223.227 357.926 223.42C357.574 223.61 357.295 223.873 357.091 224.21C356.886 224.547 356.784 224.932 356.784 225.364V231H355.773ZM363.913 231.199C363.387 231.199 362.906 231.097 362.47 230.892C362.035 230.684 361.688 230.384 361.43 229.994C361.173 229.6 361.044 229.123 361.044 228.562C361.044 228.131 361.125 227.767 361.288 227.472C361.451 227.176 361.682 226.934 361.982 226.744C362.281 226.555 362.635 226.405 363.044 226.295C363.453 226.186 363.904 226.1 364.396 226.04C364.885 225.979 365.298 225.926 365.635 225.881C365.976 225.835 366.235 225.763 366.413 225.665C366.591 225.566 366.68 225.407 366.68 225.188V224.983C366.68 224.388 366.502 223.92 366.146 223.58C365.794 223.235 365.286 223.062 364.624 223.062C363.995 223.062 363.482 223.201 363.084 223.477C362.69 223.754 362.413 224.08 362.254 224.455L361.294 224.108C361.491 223.631 361.764 223.25 362.112 222.966C362.461 222.678 362.851 222.472 363.283 222.347C363.714 222.218 364.152 222.153 364.595 222.153C364.929 222.153 365.275 222.197 365.635 222.284C365.999 222.371 366.336 222.523 366.646 222.739C366.957 222.951 367.209 223.248 367.402 223.631C367.595 224.009 367.692 224.491 367.692 225.074V231H366.68V229.619H366.618C366.497 229.877 366.317 230.127 366.078 230.369C365.839 230.612 365.54 230.811 365.18 230.966C364.821 231.121 364.398 231.199 363.913 231.199ZM364.05 230.273C364.588 230.273 365.054 230.153 365.447 229.915C365.841 229.676 366.144 229.36 366.357 228.966C366.572 228.568 366.68 228.131 366.68 227.653V226.392C366.605 226.464 366.478 226.528 366.3 226.585C366.125 226.642 365.923 226.693 365.692 226.739C365.464 226.78 365.237 226.816 365.01 226.847C364.783 226.877 364.578 226.903 364.396 226.926C363.904 226.987 363.483 227.081 363.135 227.21C362.786 227.339 362.519 227.517 362.334 227.744C362.148 227.968 362.055 228.256 362.055 228.608C362.055 229.138 362.245 229.549 362.624 229.841C363.002 230.129 363.478 230.273 364.05 230.273ZM370.382 231V222.273H371.365V223.614H371.439C371.613 223.174 371.916 222.82 372.348 222.551C372.784 222.278 373.276 222.142 373.825 222.142C373.909 222.142 374.001 222.144 374.104 222.148C374.206 222.152 374.291 222.155 374.359 222.159V223.188C374.314 223.18 374.234 223.169 374.121 223.153C374.007 223.138 373.884 223.131 373.751 223.131C373.297 223.131 372.892 223.227 372.536 223.42C372.183 223.61 371.905 223.873 371.7 224.21C371.496 224.547 371.393 224.932 371.393 225.364V231H370.382ZM377.055 234.273C376.855 234.273 376.667 234.254 376.493 234.216C376.319 234.178 376.18 234.136 376.078 234.091L376.351 233.199C376.696 233.305 377.002 233.343 377.271 233.312C377.54 233.286 377.779 233.165 377.987 232.949C378.196 232.737 378.381 232.411 378.544 231.972L378.862 231.085L375.652 222.273H376.749L379.339 229.665H379.419L382.01 222.273H383.107L379.413 232.381C379.258 232.801 379.067 233.152 378.839 233.432C378.612 233.716 378.349 233.926 378.05 234.062C377.754 234.203 377.423 234.273 377.055 234.273ZM270.545 250V238.364H274.472C275.229 238.364 275.86 238.496 276.364 238.761C276.871 239.027 277.252 239.388 277.506 239.847C277.759 240.305 277.886 240.826 277.886 241.409C277.886 241.894 277.805 242.309 277.642 242.653C277.479 242.998 277.258 243.277 276.977 243.489C276.697 243.701 276.384 243.854 276.04 243.949V244.04C276.415 244.066 276.778 244.199 277.131 244.438C277.483 244.672 277.773 245.002 278 245.426C278.227 245.85 278.341 246.358 278.341 246.949C278.341 247.536 278.21 248.061 277.949 248.523C277.688 248.981 277.286 249.343 276.744 249.608C276.206 249.869 275.521 250 274.688 250H270.545ZM271.608 249.045H274.688C275.585 249.045 276.248 248.847 276.676 248.449C277.108 248.051 277.324 247.551 277.324 246.949C277.324 246.506 277.216 246.104 277 245.744C276.788 245.381 276.487 245.093 276.097 244.881C275.71 244.669 275.256 244.562 274.733 244.562H271.608V249.045ZM271.608 243.619H274.568C275.027 243.619 275.428 243.525 275.773 243.335C276.117 243.146 276.386 242.884 276.58 242.551C276.773 242.218 276.869 241.837 276.869 241.409C276.869 240.792 276.669 240.29 276.267 239.903C275.866 239.513 275.267 239.318 274.472 239.318H271.608V243.619ZM284.087 250.182C283.333 250.182 282.666 249.991 282.087 249.608C281.511 249.225 281.06 248.697 280.734 248.023C280.409 247.345 280.246 246.562 280.246 245.676C280.246 244.782 280.409 243.996 280.734 243.318C281.06 242.636 281.511 242.106 282.087 241.727C282.666 241.345 283.333 241.153 284.087 241.153C284.84 241.153 285.505 241.345 286.081 241.727C286.657 242.11 287.107 242.64 287.433 243.318C287.763 243.996 287.928 244.782 287.928 245.676C287.928 246.562 287.765 247.345 287.439 248.023C287.113 248.697 286.661 249.225 286.081 249.608C285.505 249.991 284.84 250.182 284.087 250.182ZM284.087 249.256C284.693 249.256 285.206 249.093 285.626 248.767C286.047 248.441 286.365 248.008 286.581 247.466C286.801 246.924 286.911 246.328 286.911 245.676C286.911 245.025 286.801 244.426 286.581 243.881C286.365 243.335 286.047 242.898 285.626 242.568C285.206 242.239 284.693 242.074 284.087 242.074C283.484 242.074 282.971 242.239 282.547 242.568C282.126 242.898 281.806 243.335 281.587 243.881C281.371 244.426 281.263 245.025 281.263 245.676C281.263 246.328 281.371 246.924 281.587 247.466C281.806 248.008 282.126 248.441 282.547 248.767C282.967 249.093 283.481 249.256 284.087 249.256ZM293.585 241.273V242.153H289.42V241.273H293.585ZM290.722 239.182H291.739V247.722C291.739 248.085 291.801 248.371 291.926 248.58C292.051 248.784 292.214 248.93 292.415 249.017C292.616 249.1 292.83 249.142 293.057 249.142C293.189 249.142 293.303 249.134 293.398 249.119C293.492 249.1 293.576 249.081 293.648 249.062L293.864 249.977C293.765 250.015 293.644 250.049 293.5 250.08C293.356 250.114 293.178 250.131 292.966 250.131C292.595 250.131 292.237 250.049 291.892 249.886C291.551 249.723 291.271 249.481 291.051 249.159C290.831 248.837 290.722 248.438 290.722 247.96V239.182ZM296.28 250V238.364H300.036C300.861 238.364 301.551 238.513 302.104 238.812C302.661 239.108 303.079 239.519 303.359 240.045C303.643 240.568 303.786 241.169 303.786 241.847C303.786 242.525 303.643 243.123 303.359 243.642C303.079 244.161 302.662 244.566 302.109 244.858C301.556 245.15 300.871 245.295 300.053 245.295H296.854V244.324H300.024C300.63 244.324 301.134 244.223 301.536 244.023C301.941 243.822 302.242 243.536 302.439 243.165C302.64 242.794 302.74 242.354 302.74 241.847C302.74 241.339 302.64 240.896 302.439 240.517C302.238 240.134 301.935 239.839 301.53 239.631C301.128 239.422 300.621 239.318 300.007 239.318H297.342V250H296.28ZM301.411 244.75L304.274 250H303.047L300.212 244.75H301.411ZM309.598 250.182C308.784 250.182 308.079 249.992 307.484 249.614C306.89 249.231 306.429 248.703 306.104 248.028C305.782 247.35 305.621 246.57 305.621 245.688C305.621 244.809 305.782 244.028 306.104 243.347C306.429 242.661 306.878 242.125 307.45 241.739C308.026 241.348 308.691 241.153 309.445 241.153C309.918 241.153 310.375 241.241 310.814 241.415C311.253 241.585 311.647 241.848 311.996 242.205C312.348 242.557 312.626 243.002 312.831 243.54C313.036 244.074 313.138 244.706 313.138 245.438V245.938H306.32V245.045H312.104C312.104 244.485 311.99 243.981 311.763 243.534C311.539 243.083 311.227 242.727 310.825 242.466C310.428 242.205 309.967 242.074 309.445 242.074C308.892 242.074 308.405 242.222 307.984 242.517C307.564 242.812 307.234 243.203 306.996 243.688C306.761 244.172 306.642 244.703 306.638 245.278V245.812C306.638 246.506 306.757 247.112 306.996 247.631C307.238 248.146 307.581 248.545 308.024 248.83C308.467 249.114 308.992 249.256 309.598 249.256C310.011 249.256 310.373 249.191 310.683 249.062C310.998 248.934 311.261 248.761 311.473 248.545C311.689 248.326 311.852 248.085 311.962 247.824L312.922 248.136C312.789 248.504 312.571 248.843 312.268 249.153C311.969 249.464 311.594 249.714 311.143 249.903C310.696 250.089 310.181 250.182 309.598 250.182ZM321.23 243.188L320.304 243.449C320.213 243.187 320.084 242.951 319.918 242.739C319.751 242.527 319.533 242.358 319.264 242.233C318.999 242.108 318.67 242.045 318.276 242.045C317.685 242.045 317.2 242.186 316.821 242.466C316.442 242.746 316.253 243.108 316.253 243.551C316.253 243.926 316.382 244.231 316.639 244.466C316.901 244.697 317.302 244.881 317.844 245.017L319.162 245.341C319.893 245.519 320.44 245.801 320.804 246.188C321.171 246.574 321.355 247.059 321.355 247.642C321.355 248.134 321.219 248.572 320.946 248.955C320.673 249.337 320.293 249.638 319.804 249.858C319.319 250.074 318.757 250.182 318.116 250.182C317.264 250.182 316.562 249.991 316.009 249.608C315.455 249.222 315.101 248.665 314.946 247.938L315.918 247.699C316.043 248.218 316.287 248.61 316.651 248.875C317.018 249.14 317.501 249.273 318.099 249.273C318.77 249.273 319.306 249.123 319.707 248.824C320.109 248.521 320.31 248.142 320.31 247.688C320.31 247.335 320.192 247.04 319.957 246.801C319.723 246.559 319.366 246.381 318.889 246.267L317.463 245.926C316.705 245.744 316.145 245.456 315.781 245.062C315.418 244.669 315.236 244.18 315.236 243.597C315.236 243.116 315.366 242.693 315.628 242.33C315.889 241.962 316.249 241.674 316.707 241.466C317.166 241.258 317.688 241.153 318.276 241.153C319.075 241.153 319.713 241.335 320.19 241.699C320.671 242.059 321.018 242.555 321.23 243.188ZM323.57 253.273V241.273H324.553V242.938H324.672C324.793 242.676 324.96 242.409 325.172 242.136C325.384 241.86 325.664 241.627 326.013 241.438C326.365 241.248 326.808 241.153 327.342 241.153C328.062 241.153 328.691 241.343 329.229 241.722C329.77 242.097 330.191 242.623 330.49 243.301C330.793 243.975 330.945 244.761 330.945 245.659C330.945 246.561 330.793 247.35 330.49 248.028C330.191 248.706 329.77 249.235 329.229 249.614C328.691 249.992 328.066 250.182 327.354 250.182C326.827 250.182 326.386 250.087 326.03 249.898C325.678 249.708 325.392 249.475 325.172 249.199C324.956 248.919 324.789 248.646 324.672 248.381H324.581V253.273H323.57ZM324.57 245.642C324.57 246.347 324.674 246.972 324.882 247.517C325.094 248.059 325.397 248.485 325.791 248.795C326.189 249.102 326.67 249.256 327.234 249.256C327.814 249.256 328.303 249.097 328.7 248.778C329.102 248.456 329.407 248.023 329.615 247.477C329.827 246.932 329.933 246.32 329.933 245.642C329.933 244.972 329.829 244.367 329.621 243.83C329.416 243.292 329.113 242.866 328.712 242.551C328.31 242.233 327.818 242.074 327.234 242.074C326.666 242.074 326.183 242.227 325.786 242.534C325.388 242.837 325.085 243.258 324.876 243.795C324.672 244.33 324.57 244.945 324.57 245.642ZM336.555 250.182C335.802 250.182 335.135 249.991 334.555 249.608C333.98 249.225 333.529 248.697 333.203 248.023C332.877 247.345 332.714 246.562 332.714 245.676C332.714 244.782 332.877 243.996 333.203 243.318C333.529 242.636 333.98 242.106 334.555 241.727C335.135 241.345 335.802 241.153 336.555 241.153C337.309 241.153 337.974 241.345 338.55 241.727C339.125 242.11 339.576 242.64 339.902 243.318C340.232 243.996 340.396 244.782 340.396 245.676C340.396 246.562 340.233 247.345 339.908 248.023C339.582 248.697 339.129 249.225 338.55 249.608C337.974 249.991 337.309 250.182 336.555 250.182ZM336.555 249.256C337.161 249.256 337.675 249.093 338.095 248.767C338.516 248.441 338.834 248.008 339.05 247.466C339.269 246.924 339.379 246.328 339.379 245.676C339.379 245.025 339.269 244.426 339.05 243.881C338.834 243.335 338.516 242.898 338.095 242.568C337.675 242.239 337.161 242.074 336.555 242.074C335.953 242.074 335.44 242.239 335.016 242.568C334.595 242.898 334.275 243.335 334.055 243.881C333.839 244.426 333.732 245.025 333.732 245.676C333.732 246.328 333.839 246.924 334.055 247.466C334.275 248.008 334.595 248.441 335.016 248.767C335.436 249.093 335.949 249.256 336.555 249.256ZM343.628 244.545V250H342.616V241.273H343.599V242.642H343.69C343.895 242.195 344.213 241.837 344.645 241.568C345.08 241.295 345.618 241.159 346.259 241.159C346.846 241.159 347.361 241.282 347.804 241.528C348.251 241.771 348.598 242.129 348.844 242.602C349.094 243.076 349.219 243.657 349.219 244.347V250H348.207V244.409C348.207 243.693 348.007 243.127 347.605 242.71C347.207 242.294 346.673 242.085 346.003 242.085C345.545 242.085 345.137 242.184 344.781 242.381C344.425 242.578 344.143 242.862 343.935 243.233C343.73 243.6 343.628 244.038 343.628 244.545ZM357.746 243.188L356.82 243.449C356.729 243.187 356.6 242.951 356.433 242.739C356.267 242.527 356.049 242.358 355.78 242.233C355.515 242.108 355.185 242.045 354.791 242.045C354.2 242.045 353.715 242.186 353.337 242.466C352.958 242.746 352.768 243.108 352.768 243.551C352.768 243.926 352.897 244.231 353.155 244.466C353.416 244.697 353.818 244.881 354.359 245.017L355.678 245.341C356.409 245.519 356.956 245.801 357.32 246.188C357.687 246.574 357.871 247.059 357.871 247.642C357.871 248.134 357.734 248.572 357.462 248.955C357.189 249.337 356.808 249.638 356.32 249.858C355.835 250.074 355.272 250.182 354.632 250.182C353.78 250.182 353.077 249.991 352.524 249.608C351.971 249.222 351.617 248.665 351.462 247.938L352.433 247.699C352.558 248.218 352.803 248.61 353.166 248.875C353.534 249.14 354.017 249.273 354.615 249.273C355.286 249.273 355.821 249.123 356.223 248.824C356.625 248.521 356.825 248.142 356.825 247.688C356.825 247.335 356.708 247.04 356.473 246.801C356.238 246.559 355.882 246.381 355.405 246.267L353.979 245.926C353.221 245.744 352.661 245.456 352.297 245.062C351.933 244.669 351.751 244.18 351.751 243.597C351.751 243.116 351.882 242.693 352.143 242.33C352.405 241.962 352.765 241.674 353.223 241.466C353.681 241.258 354.204 241.153 354.791 241.153C355.59 241.153 356.229 241.335 356.706 241.699C357.187 242.059 357.534 242.555 357.746 243.188ZM363.614 250.182C362.799 250.182 362.095 249.992 361.5 249.614C360.905 249.231 360.445 248.703 360.119 248.028C359.797 247.35 359.636 246.57 359.636 245.688C359.636 244.809 359.797 244.028 360.119 243.347C360.445 242.661 360.894 242.125 361.466 241.739C362.042 241.348 362.706 241.153 363.46 241.153C363.934 241.153 364.39 241.241 364.83 241.415C365.269 241.585 365.663 241.848 366.011 242.205C366.364 242.557 366.642 243.002 366.847 243.54C367.051 244.074 367.153 244.706 367.153 245.438V245.938H360.335V245.045H366.119C366.119 244.485 366.006 243.981 365.778 243.534C365.555 243.083 365.242 242.727 364.841 242.466C364.443 242.205 363.983 242.074 363.46 242.074C362.907 242.074 362.42 242.222 362 242.517C361.58 242.812 361.25 243.203 361.011 243.688C360.777 244.172 360.657 244.703 360.653 245.278V245.812C360.653 246.506 360.773 247.112 361.011 247.631C361.254 248.146 361.597 248.545 362.04 248.83C362.483 249.114 363.008 249.256 363.614 249.256C364.027 249.256 364.388 249.191 364.699 249.062C365.013 248.934 365.277 248.761 365.489 248.545C365.705 248.326 365.867 248.085 365.977 247.824L366.938 248.136C366.805 248.504 366.587 248.843 366.284 249.153C365.985 249.464 365.61 249.714 365.159 249.903C364.712 250.089 364.197 250.182 363.614 250.182ZM374.092 238.364H375.32L379.541 248.5H379.643L383.865 238.364H385.092V250H384.092V240.608H384.001L380.075 250H379.109L375.183 240.608H375.092V250H374.092V238.364ZM391.368 250.182C390.614 250.182 389.947 249.991 389.368 249.608C388.792 249.225 388.341 248.697 388.016 248.023C387.69 247.345 387.527 246.562 387.527 245.676C387.527 244.782 387.69 243.996 388.016 243.318C388.341 242.636 388.792 242.106 389.368 241.727C389.947 241.345 390.614 241.153 391.368 241.153C392.122 241.153 392.786 241.345 393.362 241.727C393.938 242.11 394.389 242.64 394.714 243.318C395.044 243.996 395.209 244.782 395.209 245.676C395.209 246.562 395.046 247.345 394.72 248.023C394.394 248.697 393.942 249.225 393.362 249.608C392.786 249.991 392.122 250.182 391.368 250.182ZM391.368 249.256C391.974 249.256 392.487 249.093 392.908 248.767C393.328 248.441 393.646 248.008 393.862 247.466C394.082 246.924 394.192 246.328 394.192 245.676C394.192 245.025 394.082 244.426 393.862 243.881C393.646 243.335 393.328 242.898 392.908 242.568C392.487 242.239 391.974 242.074 391.368 242.074C390.766 242.074 390.252 242.239 389.828 242.568C389.408 242.898 389.088 243.335 388.868 243.881C388.652 244.426 388.544 245.025 388.544 245.676C388.544 246.328 388.652 246.924 388.868 247.466C389.088 248.008 389.408 248.441 389.828 248.767C390.249 249.093 390.762 249.256 391.368 249.256ZM400.571 250.182C399.855 250.182 399.228 249.992 398.69 249.614C398.152 249.235 397.732 248.706 397.429 248.028C397.13 247.35 396.98 246.561 396.98 245.659C396.98 244.761 397.13 243.975 397.429 243.301C397.732 242.623 398.154 242.097 398.696 241.722C399.238 241.343 399.868 241.153 400.588 241.153C401.118 241.153 401.56 241.248 401.912 241.438C402.264 241.623 402.546 241.854 402.759 242.131C402.971 242.407 403.135 242.676 403.253 242.938H403.344V238.364H404.361V250H403.372V248.381H403.253C403.135 248.646 402.969 248.919 402.753 249.199C402.537 249.475 402.251 249.708 401.895 249.898C401.543 250.087 401.101 250.182 400.571 250.182ZM400.69 249.256C401.255 249.256 401.736 249.102 402.134 248.795C402.531 248.485 402.834 248.059 403.043 247.517C403.255 246.972 403.361 246.347 403.361 245.642C403.361 244.945 403.257 244.33 403.048 243.795C402.84 243.258 402.537 242.837 402.139 242.534C401.741 242.227 401.259 242.074 400.69 242.074C400.107 242.074 399.615 242.233 399.213 242.551C398.815 242.866 398.512 243.292 398.304 243.83C398.099 244.367 397.997 244.972 397.997 245.642C397.997 246.32 398.101 246.932 398.31 247.477C398.518 248.023 398.821 248.456 399.219 248.778C399.62 249.097 400.111 249.256 400.69 249.256ZM410.77 250.182C409.955 250.182 409.251 249.992 408.656 249.614C408.062 249.231 407.601 248.703 407.276 248.028C406.954 247.35 406.793 246.57 406.793 245.688C406.793 244.809 406.954 244.028 407.276 243.347C407.601 242.661 408.05 242.125 408.622 241.739C409.198 241.348 409.863 241.153 410.616 241.153C411.09 241.153 411.546 241.241 411.986 241.415C412.425 241.585 412.819 241.848 413.168 242.205C413.52 242.557 413.798 243.002 414.003 243.54C414.207 244.074 414.31 244.706 414.31 245.438V245.938H407.491V245.045H413.276C413.276 244.485 413.162 243.981 412.935 243.534C412.711 243.083 412.399 242.727 411.997 242.466C411.599 242.205 411.139 242.074 410.616 242.074C410.063 242.074 409.577 242.222 409.156 242.517C408.736 242.812 408.406 243.203 408.168 243.688C407.933 244.172 407.813 244.703 407.81 245.278V245.812C407.81 246.506 407.929 247.112 408.168 247.631C408.41 248.146 408.753 248.545 409.196 248.83C409.639 249.114 410.164 249.256 410.77 249.256C411.183 249.256 411.545 249.191 411.855 249.062C412.17 248.934 412.433 248.761 412.645 248.545C412.861 248.326 413.024 248.085 413.134 247.824L414.094 248.136C413.961 248.504 413.743 248.843 413.44 249.153C413.141 249.464 412.766 249.714 412.315 249.903C411.868 250.089 411.353 250.182 410.77 250.182ZM417.55 238.364V250H416.538V238.364H417.55Z" fill="white"/>
<path d="M273.072 191H269.697L275.842 173.545H279.746L285.899 191H282.524L277.862 177.125H277.726L273.072 191ZM273.183 184.156H282.388V186.696H273.183V184.156ZM288.156 191V177.909H291.241V191H288.156ZM289.707 176.051C289.218 176.051 288.798 175.889 288.445 175.565C288.093 175.236 287.917 174.841 287.917 174.381C287.917 173.915 288.093 173.52 288.445 173.196C288.798 172.866 289.218 172.702 289.707 172.702C290.201 172.702 290.621 172.866 290.968 173.196C291.32 173.52 291.496 173.915 291.496 174.381C291.496 174.841 291.32 175.236 290.968 175.565C290.621 175.889 290.201 176.051 289.707 176.051ZM300.124 191.256C298.845 191.256 297.737 190.974 296.8 190.412C295.862 189.849 295.135 189.062 294.618 188.051C294.107 187.04 293.851 185.858 293.851 184.506C293.851 183.153 294.107 181.969 294.618 180.952C295.135 179.935 295.862 179.145 296.8 178.582C297.737 178.02 298.845 177.739 300.124 177.739C301.402 177.739 302.51 178.02 303.447 178.582C304.385 179.145 305.109 179.935 305.621 180.952C306.138 181.969 306.396 183.153 306.396 184.506C306.396 185.858 306.138 187.04 305.621 188.051C305.109 189.062 304.385 189.849 303.447 190.412C302.51 190.974 301.402 191.256 300.124 191.256ZM300.141 188.784C300.834 188.784 301.413 188.594 301.879 188.213C302.345 187.827 302.692 187.31 302.919 186.662C303.152 186.014 303.268 185.293 303.268 184.497C303.268 183.696 303.152 182.972 302.919 182.324C302.692 181.67 302.345 181.151 301.879 180.764C301.413 180.378 300.834 180.185 300.141 180.185C299.43 180.185 298.839 180.378 298.368 180.764C297.902 181.151 297.553 181.67 297.32 182.324C297.092 182.972 296.979 183.696 296.979 184.497C296.979 185.293 297.092 186.014 297.32 186.662C297.553 187.31 297.902 187.827 298.368 188.213C298.839 188.594 299.43 188.784 300.141 188.784ZM315.552 177.909V180.295H308.026V177.909H315.552ZM309.884 174.773H312.969V187.062C312.969 187.477 313.032 187.795 313.157 188.017C313.288 188.233 313.458 188.381 313.668 188.46C313.879 188.54 314.112 188.58 314.367 188.58C314.56 188.58 314.737 188.565 314.896 188.537C315.06 188.509 315.185 188.483 315.271 188.46L315.79 190.872C315.626 190.929 315.39 190.991 315.083 191.06C314.782 191.128 314.413 191.168 313.975 191.179C313.202 191.202 312.506 191.085 311.887 190.83C311.268 190.568 310.776 190.165 310.413 189.619C310.055 189.074 309.879 188.392 309.884 187.574V174.773ZM318.132 191V177.909H321.124V180.091H321.26C321.499 179.335 321.908 178.753 322.487 178.344C323.072 177.929 323.74 177.722 324.49 177.722C324.661 177.722 324.851 177.73 325.061 177.747C325.277 177.759 325.456 177.778 325.598 177.807V180.645C325.467 180.599 325.26 180.56 324.976 180.526C324.697 180.486 324.428 180.466 324.166 180.466C323.604 180.466 323.098 180.588 322.649 180.832C322.206 181.071 321.857 181.403 321.601 181.83C321.345 182.256 321.217 182.747 321.217 183.304V191H318.132ZM331.18 191.264C330.351 191.264 329.604 191.116 328.939 190.821C328.28 190.52 327.757 190.077 327.371 189.491C326.99 188.906 326.8 188.185 326.8 187.327C326.8 186.588 326.936 185.977 327.209 185.494C327.482 185.011 327.854 184.625 328.325 184.335C328.797 184.045 329.328 183.827 329.919 183.679C330.516 183.526 331.132 183.415 331.768 183.347C332.536 183.267 333.158 183.196 333.635 183.134C334.112 183.065 334.459 182.963 334.675 182.827C334.896 182.685 335.007 182.466 335.007 182.17V182.119C335.007 181.477 334.817 180.98 334.436 180.628C334.055 180.276 333.507 180.099 332.791 180.099C332.036 180.099 331.436 180.264 330.993 180.594C330.555 180.923 330.26 181.312 330.107 181.761L327.226 181.352C327.453 180.557 327.828 179.892 328.351 179.358C328.874 178.818 329.513 178.415 330.268 178.148C331.024 177.875 331.859 177.739 332.774 177.739C333.405 177.739 334.033 177.812 334.658 177.96C335.283 178.108 335.854 178.352 336.371 178.693C336.888 179.028 337.303 179.486 337.615 180.065C337.933 180.645 338.092 181.369 338.092 182.239V191H335.126V189.202H335.024C334.837 189.565 334.572 189.906 334.232 190.224C333.896 190.537 333.473 190.79 332.962 190.983C332.456 191.17 331.862 191.264 331.18 191.264ZM331.982 188.997C332.601 188.997 333.138 188.875 333.592 188.631C334.047 188.381 334.396 188.051 334.641 187.642C334.891 187.233 335.016 186.787 335.016 186.304V184.761C334.919 184.841 334.754 184.915 334.521 184.983C334.294 185.051 334.038 185.111 333.754 185.162C333.47 185.213 333.189 185.259 332.911 185.298C332.632 185.338 332.391 185.372 332.186 185.401C331.726 185.463 331.314 185.565 330.95 185.707C330.587 185.849 330.3 186.048 330.089 186.304C329.879 186.554 329.774 186.878 329.774 187.276C329.774 187.844 329.982 188.273 330.396 188.562C330.811 188.852 331.339 188.997 331.982 188.997ZM347.834 185.136H350.697L352.393 187.335L353.604 188.767L356.51 192.5H353.442L351.464 189.994L350.621 188.801L347.834 185.136ZM356.928 182.273C356.928 184.153 356.575 185.764 355.871 187.105C355.172 188.44 354.217 189.463 353.007 190.173C351.803 190.884 350.436 191.239 348.908 191.239C347.379 191.239 346.01 190.884 344.8 190.173C343.595 189.457 342.641 188.432 341.936 187.097C341.237 185.756 340.888 184.148 340.888 182.273C340.888 180.392 341.237 178.784 341.936 177.449C342.641 176.108 343.595 175.082 344.8 174.372C346.01 173.662 347.379 173.307 348.908 173.307C350.436 173.307 351.803 173.662 353.007 174.372C354.217 175.082 355.172 176.108 355.871 177.449C356.575 178.784 356.928 180.392 356.928 182.273ZM353.749 182.273C353.749 180.949 353.541 179.832 353.126 178.923C352.717 178.009 352.149 177.318 351.422 176.852C350.695 176.381 349.857 176.145 348.908 176.145C347.959 176.145 347.121 176.381 346.393 176.852C345.666 177.318 345.095 178.009 344.68 178.923C344.271 179.832 344.067 180.949 344.067 182.273C344.067 183.597 344.271 184.716 344.68 185.631C345.095 186.54 345.666 187.23 346.393 187.702C347.121 188.168 347.959 188.401 348.908 188.401C349.857 188.401 350.695 188.168 351.422 187.702C352.149 187.23 352.717 186.54 353.126 185.631C353.541 184.716 353.749 183.597 353.749 182.273ZM367.739 181.003V183.543H359.881V181.003H367.739ZM371.12 191V173.545H377.802C379.063 173.545 380.112 173.744 380.947 174.142C381.788 174.534 382.415 175.071 382.83 175.753C383.251 176.435 383.461 177.207 383.461 178.071C383.461 178.781 383.325 179.389 383.052 179.895C382.779 180.395 382.413 180.801 381.952 181.114C381.492 181.426 380.978 181.651 380.41 181.787V181.957C381.029 181.991 381.623 182.182 382.191 182.528C382.765 182.869 383.234 183.352 383.597 183.977C383.961 184.602 384.143 185.358 384.143 186.244C384.143 187.148 383.924 187.96 383.487 188.682C383.049 189.398 382.39 189.963 381.509 190.378C380.629 190.793 379.521 191 378.185 191H371.12ZM374.282 188.358H377.683C378.83 188.358 379.657 188.139 380.163 187.702C380.674 187.259 380.93 186.69 380.93 185.997C380.93 185.48 380.802 185.014 380.546 184.599C380.29 184.179 379.927 183.849 379.455 183.611C378.984 183.366 378.421 183.244 377.768 183.244H374.282V188.358ZM374.282 180.969H377.41C377.955 180.969 378.447 180.869 378.884 180.67C379.322 180.466 379.665 180.179 379.915 179.81C380.171 179.435 380.299 178.991 380.299 178.48C380.299 177.804 380.06 177.247 379.583 176.81C379.112 176.372 378.41 176.153 377.478 176.153H374.282V180.969ZM392.467 191.256C391.189 191.256 390.081 190.974 389.143 190.412C388.206 189.849 387.479 189.062 386.962 188.051C386.45 187.04 386.195 185.858 386.195 184.506C386.195 183.153 386.45 181.969 386.962 180.952C387.479 179.935 388.206 179.145 389.143 178.582C390.081 178.02 391.189 177.739 392.467 177.739C393.746 177.739 394.854 178.02 395.791 178.582C396.729 179.145 397.453 179.935 397.964 180.952C398.482 181.969 398.74 183.153 398.74 184.506C398.74 185.858 398.482 187.04 397.964 188.051C397.453 189.062 396.729 189.849 395.791 190.412C394.854 190.974 393.746 191.256 392.467 191.256ZM392.484 188.784C393.178 188.784 393.757 188.594 394.223 188.213C394.689 187.827 395.036 187.31 395.263 186.662C395.496 186.014 395.612 185.293 395.612 184.497C395.612 183.696 395.496 182.972 395.263 182.324C395.036 181.67 394.689 181.151 394.223 180.764C393.757 180.378 393.178 180.185 392.484 180.185C391.774 180.185 391.183 180.378 390.712 180.764C390.246 181.151 389.896 181.67 389.663 182.324C389.436 182.972 389.322 183.696 389.322 184.497C389.322 185.293 389.436 186.014 389.663 186.662C389.896 187.31 390.246 187.827 390.712 188.213C391.183 188.594 391.774 188.784 392.484 188.784ZM407.896 177.909V180.295H400.37V177.909H407.896ZM402.228 174.773H405.313V187.062C405.313 187.477 405.376 187.795 405.501 188.017C405.631 188.233 405.802 188.381 406.012 188.46C406.222 188.54 406.455 188.58 406.711 188.58C406.904 188.58 407.08 188.565 407.239 188.537C407.404 188.509 407.529 188.483 407.614 188.46L408.134 190.872C407.969 190.929 407.734 190.991 407.427 191.06C407.126 191.128 406.756 191.168 406.319 191.179C405.546 191.202 404.85 191.085 404.231 190.83C403.612 190.568 403.12 190.165 402.756 189.619C402.398 189.074 402.222 188.392 402.228 187.574V174.773Z" fill="white"/>
</g>
<defs>
<clipPath id="clip0_5_9">
<rect width="480" height="288" fill="white"/>
</clipPath>
</defs>
</svg>
